<svg width="212" height="73" viewBox="0 0 212 73" fill="none" xmlns="http://www.w3.org/2000/svg">
<path d="M76.9132 2.31488H2.31488V70.5166H76.9132V2.31488ZM206.594 69.0635H207.151C207.345 69.0635 207.599 68.8813 207.914 68.5109L208.265 67.9037L205.935 64.1271H207.291L208.974 66.8594L210.644 64.1271H212L209.58 68.0678L209.076 68.8813C208.894 69.2309 208.619 69.5239 208.281 69.7283C207.944 69.9328 207.558 70.0406 207.164 70.041H206.601L206.594 69.0635ZM204.56 68.5902C204.56 69.5737 203.956 70.0716 202.744 70.0716H200.928V69.0638H202.744C203.15 69.0638 203.349 68.8998 203.349 68.572V68.0802H201.534C200.323 68.0802 199.718 67.5881 199.718 66.5985V65.6149C199.718 64.6313 200.323 64.1395 201.534 64.1395H204.56V68.5902ZM203.349 65.1416H201.534C201.127 65.1416 200.928 65.3052 200.928 65.6334V66.6351C200.928 66.9688 201.127 67.1329 201.534 67.1329H203.349V65.1416ZM198.328 66.7082C198.328 67.6982 197.723 68.19 196.512 68.19H195.301C194.091 68.19 193.485 67.6982 193.485 66.7082V65.5425C193.485 64.5589 194.091 64.0671 195.301 64.0671H196.512C197.723 64.0671 198.328 64.5589 198.328 65.5425V66.7082ZM197.117 66.7082V65.5425C197.117 65.2147 196.912 65.0507 196.512 65.0507H195.301C194.895 65.0507 194.696 65.2147 194.696 65.5425V66.7082C194.696 67.0363 194.895 67.2 195.301 67.2H196.512C196.905 67.2 197.111 67.0363 197.111 66.7082H197.117ZM188.749 65.6334H190.564C190.753 65.6334 190.854 65.5485 190.862 65.3845C190.868 65.2208 190.753 65.1416 190.564 65.1416H187.538V64.158H190.564C191.569 64.158 192.078 64.5589 192.078 65.3724C192.078 66.1859 191.569 66.623 190.564 66.623H188.749C188.55 66.623 188.446 66.7082 188.446 66.8783C188.446 67.048 188.55 67.1212 188.749 67.1212H191.776V68.1048H188.749C187.739 68.1048 187.229 67.6918 187.229 66.8904C187.229 66.0889 187.739 65.6334 188.749 65.6334ZM179.634 66.4827C179.634 67.5575 178.973 68.0976 177.648 68.0976H175.656C174.33 68.0976 173.665 67.5575 173.665 66.4827V64.3334C173.665 63.2585 174.33 62.7245 175.656 62.7245H177.648C178.973 62.7245 179.634 63.2585 179.634 64.3334V66.4827ZM178.307 66.4827V64.3334C178.307 63.9751 178.089 63.799 177.648 63.799H175.656C175.214 63.799 174.99 63.9751 174.99 64.3334V66.4827C174.99 66.841 175.214 67.0231 175.656 67.0231H177.648C178.084 67.0231 178.302 66.841 178.302 66.4827H178.307ZM172.289 62.7245V63.799L168.584 68.0976H166.986L170.684 63.799H165.655V62.7245H172.289ZM164.287 66.4827C164.287 67.5575 163.62 68.0976 162.295 68.0976H158.318V67.0231H162.295C162.737 67.0231 162.96 66.841 162.96 66.4827V65.9487H159.656C158.33 65.9487 157.664 65.4082 157.664 64.3334C157.664 63.2585 158.33 62.7245 159.656 62.7245H162.306C163.632 62.7245 164.298 63.2585 164.298 64.3334L164.287 66.4827ZM162.96 64.8799V64.3334C162.96 63.9751 162.737 63.799 162.295 63.799H159.656C159.214 63.799 158.995 63.9751 158.995 64.3334C158.995 64.6916 159.214 64.8738 159.656 64.8738L162.96 64.8799ZM156.285 68.0976H154.96V63.799H153.634V62.7245H156.285V68.0976ZM146.032 66.8907C146.032 67.6982 145.523 68.1048 144.505 68.1048H141.165V64.1644H144.524C145.529 64.1644 146.037 64.577 146.05 65.3788C146.039 65.5229 145.996 65.6628 145.922 65.7872C145.848 65.9117 145.748 66.0169 145.626 66.0954C145.751 66.1866 145.854 66.3062 145.924 66.4442C145.994 66.5826 146.031 66.7354 146.032 66.8907ZM144.821 65.409C144.821 65.2328 144.718 65.1419 144.513 65.1419H142.387V65.6337H144.524C144.712 65.6337 144.815 65.561 144.815 65.421L144.821 65.409ZM144.821 66.8907C144.821 66.7082 144.718 66.6173 144.513 66.6173H142.387V67.1151H144.524C144.712 67.1151 144.815 67.0363 144.815 66.8907H144.821ZM133.561 66.7082C133.561 67.6982 132.956 68.19 131.745 68.19H130.535C129.323 68.19 128.718 67.6982 128.718 66.7082V65.5425C128.718 64.5589 129.323 64.0671 130.535 64.0671H131.745C132.956 64.0671 133.561 64.5589 133.561 65.5425V66.7082ZM132.35 66.7082V65.5425C132.35 65.2147 132.151 65.0507 131.745 65.0507H130.535C130.128 65.0507 129.929 65.2147 129.929 65.5425V66.7082C129.929 67.0363 130.128 67.2 130.535 67.2H131.745C132.144 67.2 132.345 67.0363 132.345 66.7082H132.35ZM127.326 68.0987H126.114V66.6354H123.693V68.1172H122.482V64.1765H123.693V65.6518H126.114V64.1765H127.326V68.0987ZM117.755 68.0987C116.739 68.0987 116.229 67.6797 116.229 66.8417C116.229 66.0403 116.739 65.6273 117.755 65.6273H119.88C119.88 65.3056 119.674 65.1416 119.275 65.1416H116.461V64.158H119.275C120.485 64.158 121.091 64.6498 121.091 65.6334V68.0987H117.755ZM117.755 67.1151H119.88V66.6354H117.755C117.55 66.6354 117.446 66.7203 117.446 66.8783C117.446 67.0359 117.55 67.1151 117.755 67.1151ZM114.862 66.8907C114.862 67.6982 114.355 68.1048 113.338 68.1048H110.021V64.1644H113.362C114.366 64.1644 114.88 64.577 114.888 65.3788C114.877 65.5229 114.834 65.6628 114.761 65.7872C114.686 65.9117 114.585 66.0169 114.464 66.0954C114.588 66.187 114.689 66.3069 114.759 66.4454C114.826 66.5834 114.862 66.7357 114.862 66.8907ZM113.653 65.421C113.653 65.2453 113.549 65.154 113.343 65.154H111.231V65.6458H113.356C113.544 65.6337 113.653 65.561 113.653 65.421ZM113.653 66.9028C113.653 66.7207 113.549 66.6294 113.343 66.6294H111.231V67.1272H113.356C113.544 67.1152 113.653 67.0363 113.653 66.8907V66.9028ZM108.627 66.7082C108.627 67.6982 108.021 68.19 106.811 68.19H105.6C104.389 68.19 103.784 67.6982 103.784 66.7082V65.5425C103.784 64.5589 104.389 64.0671 105.6 64.0671H106.811C108.021 64.0671 108.627 64.5589 108.627 65.5425V66.7082ZM107.416 66.7082V65.5425C107.416 65.2147 107.216 65.0507 106.811 65.0507H105.6C105.194 65.0507 104.995 65.2147 104.995 65.5425V66.7082C104.995 67.0363 105.2 67.2 105.6 67.2H106.811C107.211 67.2 107.41 67.0363 107.41 66.7082H107.416ZM102.394 68.0987H101.184V66.6354H98.7621V68.1172H97.5515V64.1765H98.7621V65.6518H101.184V64.1765H102.394V68.0987ZM96.1572 68.0987H93.1306C91.92 68.0987 91.3147 67.6066 91.3147 66.6169V65.6334C91.3147 64.6498 91.92 64.158 93.1306 64.158H96.1572V65.1416H93.1306C92.7252 65.1416 92.5253 65.3056 92.5253 65.6334V66.6354C92.5253 66.9692 92.7252 67.1333 93.1306 67.1333H96.1572V68.0987ZM89.9272 66.574C89.9272 67.6488 89.2616 68.1893 87.9359 68.1893H85.2846C83.959 68.1893 83.2929 67.6488 83.2929 66.574V64.2425C83.2929 63.168 83.959 62.6336 85.2846 62.6336H87.9359C89.2616 62.6336 89.9272 63.168 89.9272 64.2425V66.574ZM88.5955 66.574V64.2425C88.5955 63.8842 88.3776 63.7081 87.9359 63.7081H85.2846C84.8426 63.7081 84.6186 63.8842 84.6186 64.2425V66.574C84.6186 66.9322 84.8426 67.1144 85.2846 67.1144H87.9359C88.3776 67.1144 88.5955 66.9322 88.5955 66.574ZM122.445 30.2048H91.6342V37.0601H114.74V43.9331H91.6342V50.8061H122.445V57.6731H83.9284V23.3137H122.445V30.2048ZM168.021 57.6915H158.196L145.871 43.9331H137.209V57.6731H129.504V23.3137H137.209V37.0601H145.871L158.196 23.3137H168.021L152.615 40.5267L168.021 57.6915ZM211.665 57.6915H184.709C177.006 57.6915 173.154 54.2509 173.154 47.3696V33.6232C173.154 26.7419 177.006 23.3016 184.709 23.3016H211.665V30.2048H184.709C182.13 30.2048 180.841 31.3445 180.841 33.6232V47.3696C180.841 49.6607 182.127 50.8061 184.698 50.8061H211.653L211.665 57.6915ZM89.9514 12.0873H83.9284V18.7967H85.4359V13.4292H89.9514V12.0873ZM98.4744 14.0971V14.7711C98.4744 16.1152 97.722 16.785 96.2164 16.7809H92.4635V18.7967H90.9504V12.1179H96.2164C97.7257 12.0976 98.4785 12.7575 98.4744 14.0971ZM96.9733 14.0971C96.9733 13.648 96.7191 13.4292 96.2164 13.4292H92.4635V15.439H96.2225C96.7252 15.439 96.9793 15.2142 96.9793 14.7711L96.9733 14.0971ZM100.605 17.4548H101.41C101.586 17.4548 101.834 17.23 102.161 16.7809L103.112 15.439L99.8547 12.0873H101.821L104.02 14.3219L105.581 12.0873H107.397C106.792 12.9861 105.998 14.067 105.097 15.3296C104.764 15.7973 104.492 16.1676 104.298 16.4347L103.831 17.0422C103.716 17.1818 103.637 17.2727 103.59 17.3213C103.552 17.3507 103.521 17.3881 103.499 17.4307C102.893 18.3351 102.288 18.7846 101.586 18.7846H100.623L100.605 17.4548ZM115.902 18.7967H114.4V13.4292H109.885V18.7967H108.377V12.1179H115.902V18.7967ZM124.806 18.7967H123.299V13.4292H118.789V18.7967H117.281V12.1179H124.806V18.7967ZM133.705 18.7967H132.203V17.4548H127.688V18.7967H126.187V13.9878C126.187 12.644 126.938 11.9723 128.438 11.9723H131.465C132.966 11.9723 133.717 12.644 133.717 13.9878L133.705 18.7967ZM132.203 16.113V13.9878C132.203 13.5386 131.956 13.3138 131.453 13.3138H128.426C127.929 13.3138 127.676 13.5386 127.676 13.9878V16.113H132.203ZM148.25 18.7967H146.339L143.916 16.113H142.221V18.7967H140.715V12.1179H142.221V14.8017H143.916L146.339 12.1179H148.258L145.23 15.4692L148.25 18.7967ZM156.774 16.8963C156.774 18.24 156.023 18.9102 154.522 18.906H151.495C149.987 18.906 149.233 18.2362 149.237 16.8963V13.9878C149.237 12.644 149.99 11.9723 151.495 11.9723H154.522C156.023 11.9723 156.774 12.644 156.774 13.9878V16.8963ZM155.273 16.8963V13.9878C155.273 13.5386 155.018 13.3138 154.522 13.3138H151.495C150.993 13.3138 150.745 13.5386 150.745 13.9878V16.8963C150.745 17.3394 150.993 17.5642 151.495 17.5642H154.522C155.018 17.5642 155.273 17.3394 155.273 16.8963ZM167.185 18.7967H165.708V14.5889L162.682 18.7967L159.655 14.5889V18.7967H158.148V12.1179H159.655L162.682 16.3196L165.708 12.1179H167.216L167.185 18.7967ZM176.083 18.7967H174.583V13.4292H170.067V18.7967H168.56V12.1179H176.083V18.7967ZM184.988 18.7967H183.481V17.4548H178.971V18.7967H177.463V13.9878C177.463 12.6463 178.22 11.9723 179.722 11.9723H182.748C184.249 11.9723 185.006 12.6463 185.006 13.9878L184.988 18.7967ZM183.481 16.113V13.9878C183.481 13.5386 183.233 13.3138 182.73 13.3138H179.703C179.201 13.3138 178.953 13.5386 178.953 13.9878V16.113H183.481ZM193.892 18.7967H192.385V16.113H187.87V18.7967H186.367V12.1179H187.87V14.8017H192.385V12.0873H193.892V18.7967ZM202.791 12.1179H201.29L196.774 16.7688V12.0873H195.266V18.7967H196.774L201.29 14.1458V18.7967H202.791V12.1179ZM211.695 12.1179H210.188L205.661 16.7383V12.0873H204.153V18.7967H205.661L210.17 14.1458V18.7967H211.713L211.695 12.1179ZM208.668 11.444H207.168V10.0715H208.686L208.668 11.444ZM88.8637 7.1815H87.8892V6.31334H84.9652V7.1815H83.9907V4.09728C83.9907 3.22872 84.4749 2.79161 85.4494 2.79161H87.3989C88.3734 2.79161 88.8637 3.22872 88.8637 4.09728V7.1815ZM87.8892 5.44515V4.09728C87.8892 3.80575 87.7255 3.66618 87.3989 3.66618H85.4494C85.1228 3.66618 84.9652 3.80575 84.9652 4.09728V5.44515H87.8892ZM95.4436 7.1815H94.1965L92.6408 5.44515H91.5391V7.1815H90.5646V2.83422H91.5391V4.57662H92.6408L94.1965 2.83422H95.4436L93.4882 5.00768L95.4436 7.1815ZM101.775 2.83422H100.801V6.31334H97.877V2.83422H96.9024V7.1815H101.29V8.05574H102.265V6.31334H101.775V2.83422ZM108.839 2.83422H107.866L104.947 5.8702V2.83422H103.967V7.1815H104.947L107.866 4.14552V7.1815H108.839V2.83422ZM115.425 5.94902C115.425 6.82323 114.935 7.25432 113.96 7.25432H112.011C111.036 7.25432 110.547 6.82323 110.547 5.94902V4.09728C110.547 3.22872 111.036 2.79161 112.011 2.79161H113.96C114.935 2.79161 115.425 3.22872 115.425 4.09728V5.94902ZM114.445 5.94902V4.09728C114.445 3.80575 114.281 3.66618 113.96 3.66618H112.011C111.684 3.66618 111.522 3.80575 111.522 4.09728V5.97918C111.522 6.27071 111.684 6.41669 112.011 6.41669H113.96C114.257 6.38614 114.445 6.24055 114.445 5.94902ZM121.999 7.16342H121.025V5.44515H118.1V7.1815H117.127V2.83422H118.1V4.57662H121.025V2.83422H121.999V7.16342ZM128.58 3.69034H124.68V4.57662H127.604V5.44515H124.68V6.31334H128.58V7.1815H123.736V2.83422H128.58V3.69034ZM135.16 4.1214V4.5585C135.16 5.42668 134.675 5.8638 133.7 5.8638H131.279V7.16342H130.304V2.83422H133.719C134.675 2.83422 135.16 3.27131 135.16 4.13948V4.1214ZM134.185 4.1214C134.185 3.82987 134.021 3.69034 133.7 3.69034H131.279V5.00768H133.7C134.021 5.00768 134.185 4.86212 134.185 4.57662V4.1214ZM141.739 7.15738H140.765V5.44515H137.865V7.1815H136.89V2.83422H137.865V4.57662H140.788V2.83422H141.763L141.739 7.15738ZM148.318 5.94298C148.318 6.81719 147.829 7.24828 146.854 7.24828H144.906C143.93 7.24828 143.441 6.81719 143.441 5.94298V4.09728C143.441 3.22872 143.93 2.79161 144.906 2.79161H146.854C147.829 2.79161 148.318 3.22872 148.318 4.09728V5.94298ZM147.345 5.94298V4.09728C147.345 3.80575 147.181 3.66618 146.854 3.66618H144.906C144.584 3.66618 144.421 3.80575 144.421 4.09728V5.97918C144.421 6.27071 144.584 6.41669 144.906 6.41669H146.854C147.181 6.39632 147.345 6.24055 147.345 5.94902V5.94298ZM154.893 3.70238H151.001V4.57662H153.918V5.44515H151.001V6.31334H154.893V7.1815H150.051V2.83422H154.893V3.70238ZM164.318 5.94902C164.318 6.82323 163.833 7.25432 162.859 7.25432H160.91C159.929 7.25432 159.444 6.82323 159.444 5.94902V4.09728C159.444 3.22872 159.929 2.79161 160.91 2.79161H162.859C163.833 2.79161 164.318 3.22872 164.318 4.09728V5.94902ZM163.344 5.94902V4.09728C163.344 3.80575 163.179 3.66618 162.859 3.66618H160.91C160.583 3.66618 160.42 3.80575 160.42 4.09728V5.97918C160.42 6.27071 160.583 6.41669 160.91 6.41669H162.859C163.179 6.38614 163.344 6.24055 163.344 5.94902ZM169.433 4.57662H167.012V3.70842H170.42V2.83422H166.036V7.1815H169.446C170.42 7.1815 170.91 6.75046 170.91 5.88228C170.91 5.01411 170.407 4.57662 169.433 4.57662ZM169.433 6.31334H167.012V5.44515H169.433C169.76 5.44515 169.924 5.59076 169.924 5.88228C169.947 6.1674 169.76 6.31334 169.433 6.31334ZM178.452 2.83422H177.477V6.31334H176.001V2.83422H175.026V6.31334H173.579V2.83422H172.605V7.1815H177.962V8.05574H178.936V6.31334H178.452V2.83422ZM185.516 3.70842H181.618V4.57662H184.542V5.44515H181.618V6.31334H185.516V7.1815H180.644V2.83422H185.516V3.70842ZM192.097 7.1815H188.713C187.733 7.1815 187.248 6.75046 187.248 5.88228V4.13948C187.248 3.27131 187.733 2.83422 188.713 2.83422H192.121V3.70842H188.713C188.386 3.70842 188.222 3.84833 188.222 4.13948V5.88228C188.222 6.1674 188.386 6.31334 188.713 6.31334H192.121L192.097 7.1815ZM198.677 3.70842H196.727V7.1815H195.752V3.70842H193.803V2.83422H198.646L198.677 3.70842ZM204.948 5.00164C205.059 4.8885 205.145 4.75198 205.199 4.60225C205.252 4.45215 205.271 4.29226 205.256 4.13348C205.256 3.2653 204.76 2.83422 203.792 2.83422H200.384V7.1815H203.792C204.766 7.1815 205.256 6.75046 205.256 5.88228C205.27 5.722 205.25 5.56056 205.197 5.40858C205.143 5.25697 205.058 5.11818 204.948 5.00164ZM203.792 4.57662H201.37V3.70842H203.792C204.119 3.70842 204.282 3.84833 204.282 4.13948C204.282 4.43101 204.119 4.57662 203.792 4.57662ZM203.792 6.31334H201.37V5.44515H203.792C204.119 5.44515 204.282 5.59076 204.282 5.88228C204.282 6.1674 204.119 6.31334 203.792 6.31334ZM211.831 5.94902C211.831 6.82323 211.346 7.25432 210.371 7.25432H208.423C207.447 7.25432 206.963 6.82323 206.963 5.94902V4.09728C206.963 3.22872 207.447 2.79161 208.423 2.79161H210.371C211.346 2.79161 211.831 3.22872 211.831 4.09728V5.94902ZM210.856 5.94902V4.09728C210.856 3.80575 210.698 3.66618 210.371 3.66618H208.423C208.095 3.66618 207.938 3.80575 207.938 4.09728V5.97918C207.938 6.27071 208.095 6.41669 208.423 6.41669H210.371C210.698 6.38614 210.856 6.24055 210.856 5.94902ZM7.10946 28.3896V29.4158V66.2892H67.6303L7.10946 28.3896ZM67.7057 66.2888H69.3097L17.0396 27.5456C18.6153 26.9252 20.1257 26.1502 21.5494 25.2322L68.3774 63.6296L24.8784 22.6941C27.1865 20.6454 29.0391 18.1322 30.3153 15.3183C31.5919 12.5045 32.264 9.45264 32.2877 6.36122H29.1582C29.1582 17.3209 19.6185 26.2278 7.71742 26.562L67.7057 66.2888ZM32.4846 6.36122L72.5512 60.3628V6.36122H32.4846ZM28.2052 6.40877H24.1615C24.1615 14.8303 16.5285 21.6611 7.10946 21.6611V25.3039C18.762 25.2737 28.2052 16.8461 28.2052 6.40877ZM1.15744 0H79.2281V72.8315H0V0H1.15744Z" fill="#1051A3"/>
</svg>
