<svg width="212" height="74" viewBox="0 0 212 74" fill="none" xmlns="http://www.w3.org/2000/svg">
<path d="M78.3499 2H2V72H78.3499V2Z" stroke="#1051A3" stroke-width="2.32" stroke-miterlimit="10"/>
<path d="M28.8494 7.21289H24.8355C24.8355 15.5726 17.2582 22.3533 7.9082 22.3533V25.9696C19.4754 25.9395 28.8494 17.5737 28.8494 7.21289Z" fill="#1051A3"/>
<path d="M33.0977 7.16577L72.871 60.7718V7.16577H33.0977Z" fill="#1051A3"/>
<path d="M68.0605 66.6543H69.6529L17.7655 28.1948C19.3295 27.5789 20.8289 26.8097 22.2422 25.8984L68.7276 64.0145L25.5471 23.3789C27.8381 21.345 29.677 18.8504 30.9441 16.0571C32.2112 13.2639 32.8783 10.2345 32.9021 7.16577H29.7955C29.7955 18.0448 20.3254 26.8868 8.51172 27.2183L68.0605 66.6543Z" fill="#1051A3"/>
<path d="M7.9082 29.033V30.0515V66.6549H67.9858L7.9082 29.033Z" fill="#1051A3"/>
<path fill-rule="evenodd" clip-rule="evenodd" d="M89.0637 7.97974H88.0963V7.11785H85.194V7.97974H84.2266V4.91792C84.2266 4.05603 84.7072 3.62207 85.6747 3.62207H87.6096C88.577 3.62207 89.0637 4.05603 89.0637 4.91792V7.97974ZM88.0963 6.25596V4.91792C88.0963 4.62861 87.934 4.48999 87.6096 4.48999H85.6747C85.3502 4.48999 85.194 4.62861 85.194 4.91792V6.25596H88.0963ZM95.5955 7.97974H94.3577L92.8134 6.25596H91.7197V7.97974H90.7523V3.66426H91.7197V5.39407H92.8134L94.3577 3.66426H95.5955L93.6546 5.822L95.5955 7.97974ZM101.881 3.66426H100.913V7.11785H98.0111V3.66426H97.0436V7.97974H101.4V8.84767H102.368V7.11785H101.881V3.66426ZM108.893 3.66426H107.926L105.03 6.67787V3.66426H104.056V7.97974H105.03L107.926 4.96613V7.97974H108.893V3.66426ZM115.431 6.75622C115.431 7.62414 114.944 8.05207 113.977 8.05207H112.042C111.075 8.05207 110.588 7.62414 110.588 6.75622V4.91792C110.588 4.05603 111.075 3.62207 112.042 3.62207H113.977C114.944 3.62207 115.431 4.05603 115.431 4.91792V6.75622ZM114.458 6.75622V4.91792C114.458 4.62861 114.295 4.48999 113.977 4.48999H112.042C111.717 4.48999 111.556 4.62861 111.556 4.91792V6.78635C111.556 7.07566 111.717 7.22032 112.042 7.22032H113.977C114.271 7.19018 114.458 7.04553 114.458 6.75622ZM121.957 7.96166H120.99V6.25596H118.087V7.97974H117.12V3.66426H118.087V5.39407H120.99V3.66426H121.957V7.96166ZM128.489 4.5141H124.619V5.39407H127.521V6.25596H124.619V7.11785H128.489V7.97974H123.681V3.66426H128.489V4.5141ZM135.021 4.94203V5.37598C135.021 6.23788 134.54 6.67184 133.572 6.67184H131.168V7.96166H130.201V3.66426H133.591C134.54 3.66426 135.021 4.09821 135.021 4.96011V4.94203ZM134.053 4.94203C134.053 4.65272 133.891 4.5141 133.572 4.5141H131.168V5.822H133.572C133.891 5.822 134.053 5.67735 134.053 5.39407V4.94203ZM141.553 7.95564H140.584V6.25596H137.706V7.97974H136.738V3.66426H137.706V5.39407H140.609V3.66426H141.576L141.553 7.95564ZM148.083 6.75019C148.083 7.61811 147.597 8.04604 146.629 8.04604H144.695C143.727 8.04604 143.241 7.61811 143.241 6.75019V4.91792C143.241 4.05603 143.727 3.62207 144.695 3.62207H146.629C147.597 3.62207 148.083 4.05603 148.083 4.91792V6.75019ZM147.116 6.75019V4.91792C147.116 4.62861 146.954 4.48999 146.629 4.48999H144.695C144.376 4.48999 144.214 4.62861 144.214 4.91792V6.78635C144.214 7.07566 144.376 7.22032 144.695 7.22032H146.629C146.954 7.20022 147.116 7.04553 147.116 6.75622V6.75019ZM154.61 4.52615H150.746V5.39407H153.642V6.25596H150.746V7.11785H154.61V7.97974H149.802V3.66426H154.61V4.52615ZM163.965 6.75622C163.965 7.62414 163.484 8.05207 162.517 8.05207H160.582C159.609 8.05207 159.128 7.62414 159.128 6.75622V4.91792C159.128 4.05603 159.609 3.62207 160.582 3.62207H162.517C163.484 3.62207 163.965 4.05603 163.965 4.91792V6.75622ZM162.998 6.75622V4.91792C162.998 4.62861 162.836 4.48999 162.517 4.48999H160.582C160.258 4.48999 160.096 4.62861 160.096 4.91792V6.78635C160.096 7.07566 160.258 7.22032 160.582 7.22032H162.517C162.836 7.19018 162.998 7.04553 162.998 6.75622ZM169.043 5.39407H166.64V4.53218H170.023V3.66426H165.672V7.97974H169.056C170.023 7.97974 170.509 7.55181 170.509 6.68992C170.509 5.82803 170.01 5.39407 169.043 5.39407ZM169.043 7.11785H166.64V6.25596H169.043C169.367 6.25596 169.53 6.40061 169.53 6.68992C169.553 6.9732 169.367 7.11785 169.043 7.11785ZM177.996 3.66426H177.029V7.11785H175.562V3.66426H174.595V7.11785H173.159V3.66426H172.192V7.97974H177.51V8.84767H178.477V7.11785H177.996V3.66426ZM185.009 4.53218H181.139V5.39407H184.042V6.25596H181.139V7.11785H185.009V7.97974H180.172V3.66426H185.009V4.53218ZM191.541 7.97974H188.182C187.209 7.97974 186.728 7.55181 186.728 6.68992V4.96011C186.728 4.09821 187.209 3.66426 188.182 3.66426H191.565V4.53218H188.182C187.858 4.53218 187.695 4.67081 187.695 4.96011V6.68992C187.695 6.9732 187.858 7.11785 188.182 7.11785H191.565L191.541 7.97974ZM198.073 4.53218H196.138V7.97974H195.17V4.53218H193.235V3.66426H198.042L198.073 4.53218ZM204.298 5.81597C204.408 5.70362 204.493 5.56817 204.547 5.41923C204.599 5.27029 204.619 5.11149 204.604 4.95408C204.604 4.09219 204.111 3.66426 203.15 3.66426H199.767V7.97974H203.15C204.117 7.97974 204.604 7.55181 204.604 6.68992C204.617 6.53079 204.597 6.37057 204.545 6.2199C204.491 6.06924 204.407 5.93155 204.298 5.81597ZM203.15 5.39407H200.746V4.53218H203.15C203.475 4.53218 203.637 4.67081 203.637 4.96011C203.637 5.24942 203.475 5.39407 203.15 5.39407ZM203.15 7.11785H200.746V6.25596H203.15C203.475 6.25596 203.637 6.40061 203.637 6.68992C203.637 6.9732 203.475 7.11785 203.15 7.11785ZM211.13 6.75622C211.13 7.62414 210.649 8.05207 209.681 8.05207H207.747C206.779 8.05207 206.298 7.62414 206.298 6.75622V4.91792C206.298 4.05603 206.779 3.62207 207.747 3.62207H209.681C210.649 3.62207 211.13 4.05603 211.13 4.91792V6.75622ZM210.162 6.75622V4.91792C210.162 4.62861 210.006 4.48999 209.681 4.48999H207.747C207.423 4.48999 207.266 4.62861 207.266 4.91792V6.78635C207.266 7.07566 207.423 7.22032 207.747 7.22032H209.681C210.006 7.19018 210.162 7.04553 210.162 6.75622Z" fill="#1051A3"/>
<path fill-rule="evenodd" clip-rule="evenodd" d="M90.143 12.8499H84.1641V19.51H85.6604V14.182H90.143V12.8499ZM98.6037 14.8449V15.514C98.6037 16.848 97.8565 17.5129 96.3623 17.5089H92.6367V19.51H91.1345V12.88H96.3623C97.8606 12.8599 98.6076 13.5149 98.6037 14.8449ZM97.1134 14.8449C97.1134 14.3989 96.861 14.182 96.3623 14.182H92.6367V16.1769H96.3684C96.8671 16.1769 97.1194 15.9539 97.1194 15.514L97.1134 14.8449ZM100.719 18.178H101.518C101.692 18.178 101.939 17.955 102.263 17.5089L103.207 16.1769L99.9737 12.8499H101.927L104.108 15.0679L105.658 12.8499H107.461C106.86 13.7419 106.073 14.8148 105.177 16.0685C104.847 16.5326 104.577 16.9002 104.384 17.1654L103.922 17.7682C103.807 17.9068 103.729 17.9972 103.681 18.0454C103.644 18.0744 103.613 18.1115 103.591 18.1538C102.99 19.0519 102.389 19.4979 101.692 19.4979H100.737L100.719 18.178ZM115.904 19.51H114.413V14.182H109.931V19.51H108.434V12.88H115.904V19.51ZM124.743 19.51H123.246V14.182H118.769V19.51H117.273V12.88H124.743V19.51ZM133.576 19.51H132.085V18.178H127.603V19.51H126.113V14.7365C126.113 13.4024 126.858 12.7354 128.348 12.7354H131.352C132.843 12.7354 133.588 13.4024 133.588 14.7365L133.576 19.51ZM132.085 16.846V14.7365C132.085 14.2904 131.839 14.0674 131.341 14.0674H128.336C127.843 14.0674 127.591 14.2904 127.591 14.7365V16.846H132.085ZM148.015 19.51H146.117L143.713 16.846H142.03V19.51H140.534V12.88H142.03V15.5441H143.713L146.117 12.88H148.022L145.017 16.2071L148.015 19.51ZM156.476 17.6235C156.476 18.9575 155.731 19.6225 154.241 19.6184H151.237C149.738 19.6184 148.991 18.9535 148.995 17.6235V14.7365C148.995 13.4024 149.741 12.7354 151.237 12.7354H154.241C155.731 12.7354 156.476 13.4024 156.476 14.7365V17.6235ZM154.986 17.6235V14.7365C154.986 14.2904 154.733 14.0674 154.241 14.0674H151.237C150.738 14.0674 150.491 14.2904 150.491 14.7365V17.6235C150.491 18.0634 150.738 18.2864 151.237 18.2864H154.241C154.733 18.2864 154.986 18.0634 154.986 17.6235ZM166.811 19.51H165.345V15.3332L162.341 19.51L159.336 15.3332V19.51H157.84V12.88H159.336L162.341 17.0509L165.345 12.88H166.841L166.811 19.51ZM175.644 19.51H174.154V14.182H169.672V19.51H168.176V12.88H175.644V19.51ZM184.484 19.51H182.988V18.178H178.511V19.51H177.015V14.7365C177.015 13.4045 177.765 12.7354 179.256 12.7354H182.26C183.75 12.7354 184.502 13.4045 184.502 14.7365L184.484 19.51ZM182.988 16.846V14.7365C182.988 14.2904 182.741 14.0674 182.242 14.0674H179.237C178.739 14.0674 178.493 14.2904 178.493 14.7365V16.846H182.988ZM193.323 19.51H191.827V16.846H187.344V19.51H185.853V12.88H187.344V15.5441H191.827V12.8499H193.323V19.51ZM202.156 12.88H200.666L196.183 17.4969V12.8499H194.687V19.51H196.183L200.666 14.8931V19.51H202.156V12.88ZM210.995 12.88H209.499L205.005 17.4667V12.8499H203.509V19.51H205.005L209.481 14.8931V19.51H211.013L210.995 12.88ZM207.991 12.2111H206.501V10.8489H208.009L207.991 12.2111Z" fill="#1051A3"/>
<path fill-rule="evenodd" clip-rule="evenodd" d="M122.399 30.8346H91.8136V37.6394H114.75V44.4621H91.8136V51.285H122.399V58.1017H84.1641V23.9937H122.399V30.8346ZM167.64 58.1198H157.888L145.654 44.4621H137.055V58.1017H129.406V23.9937H137.055V37.6394H145.654L157.888 23.9937H167.64L152.348 41.0809L167.64 58.1198ZM210.966 58.1198H184.207C176.56 58.1198 172.736 54.7044 172.736 47.8735V34.2279C172.736 27.3971 176.56 23.9817 184.207 23.9817H210.966V30.8346H184.207C181.647 30.8346 180.367 31.9657 180.367 34.2279V47.8735C180.367 50.1478 181.644 51.285 184.195 51.285H210.953L210.966 58.1198Z" fill="#1051A3"/>
<path d="M90.1209 66.9376C90.1209 68.0043 89.46 68.5408 88.144 68.5408H85.5121C84.1961 68.5408 83.5352 68.0043 83.5352 66.9376V64.6231C83.5352 63.5563 84.1961 63.0259 85.5121 63.0259H88.144C89.46 63.0259 90.1209 63.5563 90.1209 64.6231V66.9376ZM88.799 66.9376V64.6231C88.799 64.2675 88.5826 64.0927 88.144 64.0927H85.5121C85.0734 64.0927 84.8511 64.2675 84.8511 64.6231V66.9376C84.8511 67.2932 85.0734 67.474 85.5121 67.474H88.144C88.5826 67.474 88.799 67.2932 88.799 66.9376Z" fill="#1051A3"/>
<path d="M96.3052 68.451H93.3007C92.099 68.451 91.498 67.9627 91.498 66.9803V66.0039C91.498 65.0275 92.099 64.5393 93.3007 64.5393H96.3052V65.5157H93.3007C92.8981 65.5157 92.6999 65.6784 92.6999 66.0039V66.9985C92.6999 67.3299 92.8981 67.4927 93.3007 67.4927H96.3052V68.451Z" fill="#1051A3"/>
<path d="M102.495 68.4515H101.293V66.9988H98.8893V68.4695H97.6875V64.5579H98.8893V66.0225H101.293V64.5579H102.495V68.4515Z" fill="#1051A3"/>
<path d="M108.682 67.0708C108.682 68.0532 108.081 68.5415 106.88 68.5415H105.678C104.476 68.5415 103.875 68.0532 103.875 67.0708V65.9136C103.875 64.9371 104.476 64.449 105.678 64.449H106.88C108.081 64.449 108.682 64.9371 108.682 65.9136V67.0708ZM107.48 67.0708V65.9136C107.48 65.5881 107.282 65.4253 106.88 65.4253H105.678C105.275 65.4253 105.077 65.5881 105.077 65.9136V67.0708C105.077 67.3963 105.281 67.559 105.678 67.559H106.88C107.277 67.559 107.474 67.3963 107.474 67.0708H107.48Z" fill="#1051A3"/>
<path d="M114.873 67.2516C114.873 68.0533 114.369 68.4571 113.359 68.4571H110.066V64.5454H113.383C114.381 64.5454 114.891 64.9552 114.897 65.7508C114.888 65.894 114.844 66.0329 114.771 66.1564C114.698 66.2799 114.597 66.3845 114.477 66.462C114.6 66.5534 114.7 66.6725 114.769 66.8096C114.838 66.9467 114.873 67.0981 114.873 67.2516ZM113.672 65.793C113.672 65.6183 113.569 65.5278 113.365 65.5278H111.269V66.016H113.377C113.564 66.0039 113.672 65.9317 113.672 65.793ZM113.672 67.2637C113.672 67.0829 113.569 66.9925 113.365 66.9925H111.269V67.4867H113.377C113.564 67.4746 113.672 67.3963 113.672 67.2516V67.2637Z" fill="#1051A3"/>
<path d="M117.743 68.4507C116.734 68.4507 116.229 68.0349 116.229 67.2031C116.229 66.4075 116.734 65.9977 117.743 65.9977H119.852C119.852 65.6782 119.647 65.5154 119.251 65.5154H116.457V64.5391H119.251C120.453 64.5391 121.054 65.0273 121.054 66.0037V68.4507H117.743ZM117.743 67.4744H119.852V66.9982H117.743C117.539 66.9982 117.436 67.0825 117.436 67.2393C117.436 67.3959 117.539 67.4744 117.743 67.4744Z" fill="#1051A3"/>
<path d="M127.245 68.4515H126.043V66.9988H123.64V68.4695H122.438V64.5579H123.64V66.0225H126.043V64.5579H127.245V68.4515Z" fill="#1051A3"/>
<path d="M133.434 67.0708C133.434 68.0532 132.833 68.5415 131.631 68.5415H130.43C129.228 68.5415 128.627 68.0532 128.627 67.0708V65.9136C128.627 64.9371 129.228 64.449 130.43 64.449H131.631C132.833 64.449 133.434 64.9371 133.434 65.9136V67.0708ZM132.232 67.0708V65.9136C132.232 65.5881 132.034 65.4253 131.631 65.4253H130.43C130.027 65.4253 129.828 65.5881 129.828 65.9136V67.0708C129.828 67.3963 130.027 67.559 130.43 67.559H131.631C132.028 67.559 132.226 67.3963 132.226 67.0708H132.232Z" fill="#1051A3"/>
<path d="M145.812 67.2516C145.812 68.0533 145.307 68.4571 144.297 68.4571H140.98V64.5454H144.316C145.314 64.5454 145.818 64.9552 145.83 65.7508C145.82 65.894 145.777 66.0329 145.703 66.1564C145.631 66.2799 145.53 66.3845 145.409 66.462C145.533 66.5528 145.635 66.6715 145.704 66.8086C145.775 66.9459 145.811 67.0976 145.812 67.2516ZM144.61 65.7809C144.61 65.6062 144.508 65.5158 144.304 65.5158H142.194V66.0039H144.316C144.502 66.0039 144.604 65.9317 144.604 65.793L144.61 65.7809ZM144.61 67.2516C144.61 67.0708 144.508 66.9804 144.304 66.9804H142.194V67.4746H144.316C144.502 67.4746 144.604 67.3963 144.604 67.2516H144.61Z" fill="#1051A3"/>
<path d="M155.992 68.4501H154.676V64.1828H153.359V63.116H155.992V68.4501Z" fill="#1051A3"/>
<path d="M163.935 66.8468C163.935 67.9137 163.274 68.4501 161.958 68.4501H158.01V67.3833H161.958C162.397 67.3833 162.619 67.2025 162.619 66.8468V66.3165H159.338C158.022 66.3165 157.361 65.7801 157.361 64.7132C157.361 63.6464 158.022 63.116 159.338 63.116H161.97C163.286 63.116 163.947 63.6464 163.947 64.7132L163.935 66.8468ZM162.619 65.2557V64.7132C162.619 64.3577 162.397 64.1828 161.958 64.1828H159.338C158.9 64.1828 158.683 64.3577 158.683 64.7132C158.683 65.0688 158.9 65.2496 159.338 65.2496L162.619 65.2557Z" fill="#1051A3"/>
<path d="M171.878 63.116V64.1828L168.2 68.4501H166.615L170.286 64.1828H165.293V63.116H171.878Z" fill="#1051A3"/>
<path d="M179.167 66.8468C179.167 67.9137 178.512 68.4501 177.196 68.4501H175.219C173.903 68.4501 173.242 67.9137 173.242 66.8468V64.7132C173.242 63.6464 173.903 63.116 175.219 63.116H177.196C178.512 63.116 179.167 63.6464 179.167 64.7132V66.8468ZM177.851 66.8468V64.7132C177.851 64.3577 177.634 64.1828 177.196 64.1828H175.219C174.78 64.1828 174.558 64.3577 174.558 64.7132V66.8468C174.558 67.2025 174.78 67.3833 175.219 67.3833H177.196C177.629 67.3833 177.845 67.2025 177.845 66.8468H177.851Z" fill="#1051A3"/>
<path d="M188.216 66.0039H190.018C190.204 66.0039 190.306 65.9196 190.313 65.7569C190.319 65.5941 190.204 65.5158 190.018 65.5158H187.014V64.5393H190.018C191.015 64.5393 191.52 64.9371 191.52 65.7448C191.52 66.5524 191.015 66.9864 190.018 66.9864H188.216C188.017 66.9864 187.915 67.0708 187.915 67.2395C187.915 67.4083 188.017 67.4806 188.216 67.4806H191.22V68.457H188.216C187.212 68.457 186.707 68.0472 186.707 67.2516C186.707 66.4559 187.212 66.0039 188.216 66.0039Z" fill="#1051A3"/>
<path d="M197.729 67.0708C197.729 68.0532 197.128 68.5415 195.926 68.5415H194.725C193.522 68.5415 192.922 68.0532 192.922 67.0708V65.9136C192.922 64.9371 193.522 64.449 194.725 64.449H195.926C197.128 64.449 197.729 64.9371 197.729 65.9136V67.0708ZM196.527 67.0708V65.9136C196.527 65.5881 196.323 65.4253 195.926 65.4253H194.725C194.321 65.4253 194.124 65.5881 194.124 65.9136V67.0708C194.124 67.3963 194.321 67.559 194.725 67.559H195.926C196.316 67.559 196.521 67.3963 196.521 67.0708H196.527Z" fill="#1051A3"/>
<path d="M203.914 68.9387C203.914 69.9151 203.314 70.4093 202.111 70.4093H200.309V69.4088H202.111C202.515 69.4088 202.712 69.2462 202.712 68.9207V68.4324H200.91C199.708 68.4324 199.107 67.9442 199.107 66.9618V65.9854C199.107 65.009 199.708 64.5208 200.91 64.5208H203.914V68.9387ZM202.712 65.5153H200.91C200.507 65.5153 200.309 65.678 200.309 66.0035V66.998C200.309 67.3294 200.507 67.4922 200.91 67.4922H202.712V65.5153Z" fill="#1051A3"/>
<path d="M205.93 69.4087H206.483C206.675 69.4087 206.927 69.2279 207.24 68.8602L207.588 68.2575L205.275 64.5085H206.621L208.292 67.2208L209.95 64.5085H211.296L208.893 68.4202L208.394 69.2279C208.212 69.5751 207.939 69.8659 207.604 70.0688C207.269 70.2718 206.886 70.379 206.494 70.3791H205.936L205.93 69.4087Z" fill="#1051A3"/>
</svg>
