<svg width="206" height="70" viewBox="0 0 206 70" fill="none" xmlns="http://www.w3.org/2000/svg">
<g clip-path="url(#clip0_1680_2943)">
<path d="M75.5381 0.685547H0.683594V69.3146H75.5381V0.685547Z" stroke="#5B5B5B" stroke-width="2.32" stroke-miterlimit="10"/>
<path d="M27.0076 5.79639H23.0723C23.0723 13.9924 15.6434 20.6402 6.47656 20.6402V24.1857C17.8172 24.1562 27.0076 15.9542 27.0076 5.79639Z" fill="#5B5B5B"/>
<path d="M31.1719 5.75024L70.1662 58.3064V5.75024H31.1719Z" fill="#5B5B5B"/>
<path d="M65.4509 64.0737H67.0121L16.1409 26.3674C17.6742 25.7636 19.1443 25.0095 20.5299 24.1159L66.1048 61.4855L23.7701 21.6459C26.0163 19.6518 27.8191 17.206 29.0614 14.4675C30.3037 11.7289 30.9577 8.75886 30.981 5.75024H27.9353C27.9353 16.4162 18.6506 25.085 7.06836 25.41L65.4509 64.0737Z" fill="#5B5B5B"/>
<path d="M6.47656 27.189V28.1876V64.074H65.3775L6.47656 27.189Z" fill="#5B5B5B"/>
<path fill-rule="evenodd" clip-rule="evenodd" d="M86.0412 6.54821H85.0927V5.70319H82.2473V6.54821H81.2988V3.54635C81.2988 2.70134 81.7701 2.27588 82.7186 2.27588H84.6156C85.5641 2.27588 86.0412 2.70134 86.0412 3.54635V6.54821ZM85.0927 4.85818V3.54635C85.0927 3.2627 84.9337 3.1268 84.6156 3.1268H82.7186C82.4005 3.1268 82.2473 3.2627 82.2473 3.54635V4.85818H85.0927ZM92.4451 6.54821H91.2315L89.7175 4.85818H88.6452V6.54821H87.6967V2.31724H88.6452V4.01318H89.7175L91.2315 2.31724H92.4451L90.5422 4.43272L92.4451 6.54821ZM98.6074 2.31724H97.6589V5.70319H94.8134V2.31724H93.8649V6.54821H98.1361V7.39913H99.0846V5.70319H98.6074V2.31724ZM105.482 2.31724H104.534L101.694 5.27183V2.31724H100.74V6.54821H101.694L104.534 3.59362V6.54821H105.482V2.31724ZM111.892 5.34864C111.892 6.19956 111.415 6.61911 110.467 6.61911H108.569C107.621 6.61911 107.144 6.19956 107.144 5.34864V3.54635C107.144 2.70134 107.621 2.27588 108.569 2.27588H110.467C111.415 2.27588 111.892 2.70134 111.892 3.54635V5.34864ZM110.938 5.34864V3.54635C110.938 3.2627 110.779 3.1268 110.467 3.1268H108.569C108.251 3.1268 108.093 3.2627 108.093 3.54635V5.37819C108.093 5.66183 108.251 5.80365 108.569 5.80365H110.467C110.755 5.77411 110.938 5.63229 110.938 5.34864ZM118.29 6.53048H117.342V4.85818H114.496V6.54821H113.548V2.31724H114.496V4.01318H117.342V2.31724H118.29V6.53048ZM124.694 3.15044H120.9V4.01318H123.745V4.85818H120.9V5.70319H124.694V6.54821H119.98V2.31724H124.694V3.15044ZM131.098 3.56998V3.99544C131.098 4.84045 130.627 5.26592 129.677 5.26592H127.321V6.53048H126.373V2.31724H129.696C130.627 2.31724 131.098 2.7427 131.098 3.58771V3.56998ZM130.149 3.56998C130.149 3.28634 129.99 3.15044 129.677 3.15044H127.321V4.43272H129.677C129.99 4.43272 130.149 4.2909 130.149 4.01318V3.56998ZM137.502 6.52457H136.553V4.85818H133.731V6.54821H132.782V2.31724H133.731V4.01318H136.577V2.31724H137.525L137.502 6.52457ZM143.905 5.34273C143.905 6.19366 143.428 6.6132 142.479 6.6132H140.583C139.634 6.6132 139.157 6.19366 139.157 5.34273V3.54635C139.157 2.70134 139.634 2.27588 140.583 2.27588H142.479C143.428 2.27588 143.905 2.70134 143.905 3.54635V5.34273ZM142.957 5.34273V3.54635C142.957 3.2627 142.797 3.1268 142.479 3.1268H140.583C140.27 3.1268 140.112 3.2627 140.112 3.54635V5.37819C140.112 5.66183 140.27 5.80365 140.583 5.80365H142.479C142.797 5.78395 142.957 5.63229 142.957 5.34864V5.34273ZM150.304 3.16225H146.516V4.01318H149.355V4.85818H146.516V5.70319H150.304V6.54821H145.59V2.31724H150.304V3.16225ZM159.476 5.34864C159.476 6.19956 159.004 6.61911 158.056 6.61911H156.159C155.205 6.61911 154.733 6.19956 154.733 5.34864V3.54635C154.733 2.70134 155.205 2.27588 156.159 2.27588H158.056C159.004 2.27588 159.476 2.70134 159.476 3.54635V5.34864ZM158.528 5.34864V3.54635C158.528 3.2627 158.368 3.1268 158.056 3.1268H156.159C155.841 3.1268 155.682 3.2627 155.682 3.54635V5.37819C155.682 5.66183 155.841 5.80365 156.159 5.80365H158.056C158.368 5.77411 158.528 5.63229 158.528 5.34864ZM164.454 4.01318H162.098V3.16816H165.415V2.31724H161.149V6.54821H164.466C165.415 6.54821 165.891 6.12865 165.891 5.28365C165.891 4.43863 165.402 4.01318 164.454 4.01318ZM164.454 5.70319H162.098V4.85818H164.454C164.772 4.85818 164.932 5 164.932 5.28365C164.954 5.56137 164.772 5.70319 164.454 5.70319ZM173.232 2.31724H172.284V5.70319H170.846V2.31724H169.898V5.70319H168.489V2.31724H167.541V6.54821H172.755V7.39913H173.703V5.70319H173.232V2.31724ZM180.107 3.16816H176.313V4.01318H179.159V4.85818H176.313V5.70319H180.107V6.54821H175.365V2.31724H180.107V3.16816ZM186.511 6.54821H183.218C182.264 6.54821 181.792 6.12865 181.792 5.28365V3.58771C181.792 2.7427 182.264 2.31724 183.218 2.31724H186.535V3.16816H183.218C182.9 3.16816 182.741 3.30408 182.741 3.58771V5.28365C182.741 5.56137 182.9 5.70319 183.218 5.70319H186.535L186.511 6.54821ZM192.915 3.16816H191.018V6.54821H190.069V3.16816H188.173V2.31724H192.885L192.915 3.16816ZM199.019 4.42681C199.127 4.31666 199.21 4.18386 199.263 4.03784C199.314 3.89182 199.334 3.73613 199.318 3.5818C199.318 2.73679 198.835 2.31724 197.894 2.31724H194.577V6.54821H197.894C198.842 6.54821 199.318 6.12865 199.318 5.28365C199.332 5.12763 199.312 4.97055 199.261 4.82283C199.208 4.67512 199.126 4.54012 199.019 4.42681ZM197.894 4.01318H195.536V3.16816H197.894C198.212 3.16816 198.37 3.30408 198.37 3.58771C198.37 3.87135 198.212 4.01318 197.894 4.01318ZM197.894 5.70319H195.536V4.85818H197.894C198.212 4.85818 198.37 5 198.37 5.28365C198.37 5.56137 198.212 5.70319 197.894 5.70319ZM205.717 5.34864C205.717 6.19956 205.246 6.61911 204.296 6.61911H202.4C201.451 6.61911 200.98 6.19956 200.98 5.34864V3.54635C200.98 2.70134 201.451 2.27588 202.4 2.27588H204.296C205.246 2.27588 205.717 2.70134 205.717 3.54635V5.34864ZM204.768 5.34864V3.54635C204.768 3.2627 204.615 3.1268 204.296 3.1268H202.4C202.082 3.1268 201.929 3.2627 201.929 3.54635V5.37819C201.929 5.66183 202.082 5.80365 202.4 5.80365H204.296C204.615 5.77411 204.768 5.63229 204.768 5.34864Z" fill="#5B5B5B"/>
<path fill-rule="evenodd" clip-rule="evenodd" d="M87.1002 11.3229H81.2383V17.8525H82.7053V12.6289H87.1002V11.3229ZM95.3951 13.2789V13.9348C95.3951 15.2427 94.6625 15.8946 93.1976 15.8907H89.545V17.8525H88.0722V11.3524H93.1976C94.6665 11.3328 95.399 11.9749 95.3951 13.2789ZM93.934 13.2789C93.934 12.8416 93.6865 12.6289 93.1976 12.6289H89.545V14.5848H93.2035C93.6925 14.5848 93.9399 14.3661 93.9399 13.9348L93.934 13.2789ZM97.4688 16.5466H98.2523C98.4232 16.5466 98.6647 16.328 98.9829 15.8907L99.9078 14.5848L96.7382 11.3229H98.6529L100.791 13.4975L102.311 11.3229H104.079C103.49 12.1975 102.718 13.2493 101.84 14.4784C101.516 14.9334 101.251 15.2938 101.062 15.5539L100.609 16.1449C100.497 16.2807 100.42 16.3694 100.373 16.4166C100.336 16.4451 100.306 16.4815 100.285 16.523C99.6957 17.4034 99.1066 17.8407 98.4232 17.8407H97.4864L97.4688 16.5466ZM112.356 17.8525H110.895V12.6289H106.5V17.8525H105.033V11.3524H112.356V17.8525ZM121.022 17.8525H119.555V12.6289H115.166V17.8525H113.699V11.3524H121.022V17.8525ZM129.682 17.8525H128.221V16.5466H123.826V17.8525H122.365V13.1725C122.365 11.8646 123.096 11.2107 124.557 11.2107H127.502C128.964 11.2107 129.694 11.8646 129.694 13.1725L129.682 17.8525ZM128.221 15.2407V13.1725C128.221 12.7352 127.98 12.5166 127.491 12.5166H124.545C124.062 12.5166 123.815 12.7352 123.815 13.1725V15.2407H128.221ZM143.839 17.8525H141.978L139.62 15.2407H137.971V17.8525H136.504V11.3524H137.971V13.9644H139.62L141.978 11.3524H143.845L140.899 14.6143L143.839 17.8525ZM152.134 16.003C152.134 17.3109 151.403 17.9629 149.942 17.9589H146.997C145.528 17.9589 144.795 17.307 144.799 16.003V13.1725C144.799 11.8646 145.531 11.2107 146.997 11.2107H149.942C151.403 11.2107 152.134 11.8646 152.134 13.1725V16.003ZM150.673 16.003V13.1725C150.673 12.7352 150.425 12.5166 149.942 12.5166H146.997C146.508 12.5166 146.266 12.7352 146.266 13.1725V16.003C146.266 16.4343 146.508 16.653 146.997 16.653H149.942C150.425 16.653 150.673 16.4343 150.673 16.003ZM162.266 17.8525H160.829V13.7575L157.884 17.8525L154.938 13.7575V17.8525H153.471V11.3524H154.938L157.884 15.4417L160.829 11.3524H162.296L162.266 17.8525ZM170.927 17.8525H169.466V12.6289H165.072V17.8525H163.605V11.3524H170.927V17.8525ZM179.594 17.8525H178.127V16.5466H173.737V17.8525H172.27V13.1725C172.27 11.8666 173.006 11.2107 174.468 11.2107H177.413C178.874 11.2107 179.611 11.8666 179.611 13.1725L179.594 17.8525ZM178.127 15.2407V13.1725C178.127 12.7352 177.885 12.5166 177.396 12.5166H174.45C173.961 12.5166 173.72 12.7352 173.72 13.1725V15.2407H178.127ZM188.259 17.8525H186.792V15.2407H182.398V17.8525H180.936V11.3524H182.398V13.9644H186.792V11.3229H188.259V17.8525ZM196.92 11.3524H195.459L191.063 15.8789V11.3229H189.596V17.8525H191.063L195.459 13.3261V17.8525H196.92V11.3524ZM205.585 11.3524H204.118L199.712 15.8493V11.3229H198.245V17.8525H199.712L204.101 13.3261V17.8525H205.603L205.585 11.3524ZM202.64 10.6966H201.179V9.36108H202.658L202.64 10.6966Z" fill="#5B5B5B"/>
<path fill-rule="evenodd" clip-rule="evenodd" d="M118.724 28.9555H88.738V35.627H111.225V42.3161H88.738V49.0053H118.724V55.6886H81.2383V22.2486H118.724V28.9555ZM163.08 55.7063H153.519L141.524 42.3161H133.093V55.6886H125.594V22.2486H133.093V35.627H141.524L153.519 22.2486H163.08L148.086 39.0011L163.08 55.7063ZM205.556 55.7063H179.322C171.825 55.7063 168.075 52.3578 168.075 45.6607V32.2823C168.075 25.5853 171.825 22.2368 179.322 22.2368H205.556V28.9555H179.322C176.812 28.9555 175.557 30.0645 175.557 32.2823V45.6607C175.557 47.8905 176.809 49.0053 179.31 49.0053H205.544L205.556 55.7063Z" fill="#5B5B5B"/>
<path d="M87.0779 64.3512C87.0779 65.3971 86.4299 65.923 85.1397 65.923H82.5593C81.2691 65.923 80.6211 65.3971 80.6211 64.3512V62.0821C80.6211 61.0362 81.2691 60.5161 82.5593 60.5161H85.1397C86.4299 60.5161 87.0779 61.0362 87.0779 62.0821V64.3512ZM85.7818 64.3512V62.0821C85.7818 61.7334 85.5697 61.562 85.1397 61.562H82.5593C82.1292 61.562 81.9113 61.7334 81.9113 62.0821V64.3512C81.9113 64.6998 82.1292 64.8771 82.5593 64.8771H85.1397C85.5697 64.8771 85.7818 64.6998 85.7818 64.3512Z" fill="#5B5B5B"/>
<path d="M93.1426 65.8351H90.197C89.0188 65.8351 88.4297 65.3564 88.4297 64.3932V63.4359C88.4297 62.4787 89.0188 62 90.197 62H93.1426V62.9573H90.197C89.8023 62.9573 89.608 63.1168 89.608 63.4359V64.411C89.608 64.736 89.8023 64.8955 90.197 64.8955H93.1426V65.8351Z" fill="#5B5B5B"/>
<path d="M99.2092 65.8354H98.0309V64.4112H95.6744V65.8531H94.4961V62.0181H95.6744V63.454H98.0309V62.0181H99.2092V65.8354Z" fill="#5B5B5B"/>
<path d="M105.276 64.4818C105.276 65.445 104.686 65.9237 103.508 65.9237H102.33C101.152 65.9237 100.562 65.445 100.562 64.4818V63.3473C100.562 62.3899 101.152 61.9114 102.33 61.9114H103.508C104.686 61.9114 105.276 62.3899 105.276 63.3473V64.4818ZM104.097 64.4818V63.3473C104.097 63.0282 103.903 62.8686 103.508 62.8686H102.33C101.935 62.8686 101.741 63.0282 101.741 63.3473V64.4818C101.741 64.8009 101.941 64.9605 102.33 64.9605H103.508C103.897 64.9605 104.091 64.8009 104.091 64.4818H104.097Z" fill="#5B5B5B"/>
<path d="M111.345 64.6591C111.345 65.445 110.851 65.8409 109.861 65.8409H106.633V62.0059H109.885C110.863 62.0059 111.363 62.4076 111.369 63.1876C111.36 63.328 111.317 63.4642 111.246 63.5853C111.174 63.7063 111.075 63.809 110.957 63.8849C111.078 63.9745 111.176 64.0912 111.244 64.2257C111.31 64.3601 111.345 64.5086 111.345 64.6591ZM110.168 63.229C110.168 63.0577 110.067 62.969 109.867 62.969H107.811V63.4477H109.879C110.062 63.4358 110.168 63.365 110.168 63.229ZM110.168 64.6709C110.168 64.4936 110.067 64.405 109.867 64.405H107.811V64.8896H109.879C110.062 64.8777 110.168 64.8009 110.168 64.6591V64.6709Z" fill="#5B5B5B"/>
<path d="M114.16 65.8348C113.171 65.8348 112.676 65.4271 112.676 64.6116C112.676 63.8316 113.171 63.4298 114.16 63.4298H116.228C116.228 63.1166 116.028 62.957 115.639 62.957H112.9V61.9998H115.639C116.817 61.9998 117.407 62.4784 117.407 63.4357V65.8348H114.16ZM114.16 64.8776H116.228V64.4107H114.16C113.96 64.4107 113.86 64.4934 113.86 64.6471C113.86 64.8007 113.96 64.8776 114.16 64.8776Z" fill="#5B5B5B"/>
<path d="M123.475 65.8354H122.297V64.4112H119.94V65.8531H118.762V62.0181H119.94V63.454H122.297V62.0181H123.475V65.8354Z" fill="#5B5B5B"/>
<path d="M129.543 64.4818C129.543 65.445 128.954 65.9237 127.775 65.9237H126.598C125.419 65.9237 124.83 65.445 124.83 64.4818V63.3473C124.83 62.3899 125.419 61.9114 126.598 61.9114H127.775C128.954 61.9114 129.543 62.3899 129.543 63.3473V64.4818ZM128.364 64.4818V63.3473C128.364 63.0282 128.171 62.8686 127.775 62.8686H126.598C126.202 62.8686 126.008 63.0282 126.008 63.3473V64.4818C126.008 64.8009 126.202 64.9605 126.598 64.9605H127.775C128.164 64.9605 128.359 64.8009 128.359 64.4818H128.364Z" fill="#5B5B5B"/>
<path d="M141.679 64.6591C141.679 65.445 141.184 65.8409 140.193 65.8409H136.941V62.0059H140.212C141.19 62.0059 141.684 62.4076 141.696 63.1876C141.686 63.328 141.644 63.4642 141.572 63.5853C141.501 63.7063 141.402 63.809 141.283 63.8849C141.405 63.9739 141.505 64.0903 141.573 64.2248C141.642 64.3593 141.678 64.508 141.679 64.6591ZM140.5 63.2172C140.5 63.0459 140.4 62.9572 140.2 62.9572H138.131V63.4358H140.212C140.394 63.4358 140.494 63.365 140.494 63.229L140.5 63.2172ZM140.5 64.6591C140.5 64.4818 140.4 64.3932 140.2 64.3932H138.131V64.8777H140.212C140.394 64.8777 140.494 64.8009 140.494 64.6591H140.5Z" fill="#5B5B5B"/>
<path d="M151.659 65.8341H150.369V61.6505H149.078V60.6045H151.659V65.8341Z" fill="#5B5B5B"/>
<path d="M159.447 64.2623C159.447 65.3083 158.799 65.8341 157.509 65.8341H153.638V64.7882H157.509C157.939 64.7882 158.156 64.611 158.156 64.2623V63.7423H154.94C153.649 63.7423 153.002 63.2164 153.002 62.1704C153.002 61.1245 153.649 60.6045 154.94 60.6045H157.52C158.811 60.6045 159.458 61.1245 159.458 62.1704L159.447 64.2623ZM158.156 62.7023V62.1704C158.156 61.8219 157.939 61.6505 157.509 61.6505H154.94C154.51 61.6505 154.298 61.8219 154.298 62.1704C154.298 62.5191 154.51 62.6964 154.94 62.6964L158.156 62.7023Z" fill="#5B5B5B"/>
<path d="M167.236 60.6045V61.6505L163.63 65.8341H162.075L165.674 61.6505H160.779V60.6045H167.236Z" fill="#5B5B5B"/>
<path d="M174.381 64.2623C174.381 65.3083 173.739 65.8341 172.449 65.8341H170.511C169.22 65.8341 168.572 65.3083 168.572 64.2623V62.1704C168.572 61.1245 169.22 60.6045 170.511 60.6045H172.449C173.739 60.6045 174.381 61.1245 174.381 62.1704V64.2623ZM173.09 64.2623V62.1704C173.09 61.8219 172.878 61.6505 172.449 61.6505H170.511C170.08 61.6505 169.862 61.8219 169.862 62.1704V64.2623C169.862 64.611 170.08 64.7882 170.511 64.7882H172.449C172.873 64.7882 173.085 64.611 173.085 64.2623H173.09Z" fill="#5B5B5B"/>
<path d="M183.253 63.4359H185.019C185.202 63.4359 185.302 63.3533 185.308 63.1937C185.315 63.0341 185.202 62.9574 185.019 62.9574H182.074V62H185.019C185.997 62 186.492 62.39 186.492 63.1819C186.492 63.9737 185.997 64.3991 185.019 64.3991H183.253C183.058 64.3991 182.957 64.4819 182.957 64.6473C182.957 64.8128 183.058 64.8837 183.253 64.8837H186.198V65.8409H183.253C182.269 65.8409 181.773 65.4392 181.773 64.6592C181.773 63.8791 182.269 63.4359 183.253 63.4359Z" fill="#5B5B5B"/>
<path d="M192.578 64.4818C192.578 65.445 191.989 65.9237 190.81 65.9237H189.633C188.454 65.9237 187.865 65.445 187.865 64.4818V63.3473C187.865 62.3899 188.454 61.9114 189.633 61.9114H190.81C191.989 61.9114 192.578 62.3899 192.578 63.3473V64.4818ZM191.4 64.4818V63.3473C191.4 63.0282 191.199 62.8686 190.81 62.8686H189.633C189.237 62.8686 189.044 63.0282 189.044 63.3473V64.4818C189.044 64.8009 189.237 64.9605 189.633 64.9605H190.81C191.193 64.9605 191.394 64.8009 191.394 64.4818H191.4Z" fill="#5B5B5B"/>
<path d="M198.642 66.3131C198.642 67.2704 198.053 67.7549 196.875 67.7549H195.107V66.774H196.875C197.27 66.774 197.464 66.6146 197.464 66.2954V65.8168H195.697C194.519 65.8168 193.93 65.3381 193.93 64.375V63.4176C193.93 62.4604 194.519 61.9817 195.697 61.9817H198.642V66.3131ZM197.464 62.9567H195.697C195.302 62.9567 195.107 63.1163 195.107 63.4354V64.4104C195.107 64.7354 195.302 64.8949 195.697 64.8949H197.464V62.9567Z" fill="#5B5B5B"/>
<path d="M200.62 66.7739H201.162C201.351 66.7739 201.598 66.5966 201.905 66.2361L202.246 65.6452L199.979 61.9697H201.298L202.936 64.6289L204.561 61.9697H205.881L203.525 65.8048L203.036 66.5966C202.858 66.9371 202.59 67.2222 202.262 67.4211C201.933 67.6201 201.558 67.7252 201.174 67.7253H200.626L200.62 66.7739Z" fill="#5B5B5B"/>
</g>
<defs>
<clipPath id="clip0_1680_2943">
<rect width="205.882" height="70" fill="white"/>
</clipPath>
</defs>
</svg>
