<svg width="200" height="68" viewBox="0 0 200 68" fill="none" xmlns="http://www.w3.org/2000/svg">
<g clip-path="url(#clip0_1680_2943)">
<path d="M73.3799 0.666016H0.664062V67.3342H73.3799V0.666016Z" stroke="#9E9E9E" stroke-width="2.32" stroke-miterlimit="10"/>
<path d="M26.2355 5.63086H22.4126C22.4126 13.5927 15.196 20.0506 6.29102 20.0506V23.4948C17.3077 23.4661 26.2355 15.4985 26.2355 5.63086Z" fill="#9E9E9E"/>
<path d="M30.2812 5.58594L68.1614 56.6405V5.58594H30.2812Z" fill="#9E9E9E"/>
<path d="M63.5816 62.243H65.0982L15.6805 25.614C17.17 25.0275 18.5981 24.2949 19.9441 23.4269L64.2169 59.7288L23.0917 21.0274C25.2737 19.0903 27.025 16.7144 28.2318 14.0541C29.4386 11.3938 30.074 8.5086 30.0966 5.58594H27.1379C27.1379 15.9472 18.1185 24.3683 6.86719 24.684L63.5816 62.243Z" fill="#9E9E9E"/>
<path d="M6.29102 26.4121V27.3822V62.2433H63.5091L6.29102 26.4121Z" fill="#9E9E9E"/>
<path fill-rule="evenodd" clip-rule="evenodd" d="M83.5835 6.3612H82.6621V5.54033H79.898V6.3612H78.9766V3.44511C78.9766 2.62424 79.4344 2.21094 80.3558 2.21094H82.1986C83.12 2.21094 83.5835 2.62424 83.5835 3.44511V6.3612ZM82.6621 4.71946V3.44511C82.6621 3.16957 82.5076 3.03755 82.1986 3.03755H80.3558C80.0468 3.03755 79.898 3.16957 79.898 3.44511V4.71946H82.6621ZM89.8044 6.3612H88.6255L87.1547 4.71946H86.1131V6.3612H85.1917V2.25112H86.1131V3.8986H87.1547L88.6255 2.25112H89.8044L87.9559 4.30616L89.8044 6.3612ZM95.7906 2.25112H94.8692V5.54033H92.105V2.25112H91.1836V6.3612H95.3328V7.18781H96.2542V5.54033H95.7906V2.25112ZM102.469 2.25112H101.548L98.7894 5.12129V2.25112H97.8623V6.3612H98.7894L101.548 3.49103V6.3612H102.469V2.25112ZM108.696 5.19591C108.696 6.02252 108.232 6.43008 107.311 6.43008H105.468C104.547 6.43008 104.083 6.02252 104.083 5.19591V3.44511C104.083 2.62424 104.547 2.21094 105.468 2.21094H107.311C108.232 2.21094 108.696 2.62424 108.696 3.44511V5.19591ZM107.769 5.19591V3.44511C107.769 3.16957 107.614 3.03755 107.311 3.03755H105.468C105.159 3.03755 105.005 3.16957 105.005 3.44511V5.22461C105.005 5.50015 105.159 5.63792 105.468 5.63792H107.311C107.591 5.60922 107.769 5.47145 107.769 5.19591ZM114.911 6.34398H113.99V4.71946H111.225V6.3612H110.304V2.25112H111.225V3.8986H113.99V2.25112H114.911V6.34398ZM121.132 3.06051H117.446V3.8986H120.21V4.71946H117.446V5.54033H121.132V6.3612H116.553V2.25112H121.132V3.06051ZM127.353 3.46807V3.88137C127.353 4.70224 126.895 5.11555 125.973 5.11555H123.684V6.34398H122.763V2.25112H125.991C126.895 2.25112 127.353 2.66442 127.353 3.48529V3.46807ZM126.431 3.46807C126.431 3.19253 126.277 3.06051 125.973 3.06051H123.684V4.30616H125.973C126.277 4.30616 126.431 4.16839 126.431 3.8986V3.46807ZM133.574 6.33824H132.652V4.71946H129.911V6.3612H128.989V2.25112H129.911V3.8986H132.675V2.25112H133.596L133.574 6.33824ZM139.794 5.19017C139.794 6.01678 139.331 6.42434 138.409 6.42434H136.567C135.645 6.42434 135.182 6.01678 135.182 5.19017V3.44511C135.182 2.62424 135.645 2.21094 136.567 2.21094H138.409C139.331 2.21094 139.794 2.62424 139.794 3.44511V5.19017ZM138.873 5.19017V3.44511C138.873 3.16957 138.718 3.03755 138.409 3.03755H136.567C136.263 3.03755 136.109 3.16957 136.109 3.44511V5.22461C136.109 5.50015 136.263 5.63792 136.567 5.63792H138.409C138.718 5.61878 138.873 5.47145 138.873 5.19591V5.19017ZM146.01 3.07199H142.33V3.8986H145.088V4.71946H142.33V5.54033H146.01V6.3612H141.431V2.25112H146.01V3.07199ZM154.92 5.19591C154.92 6.02252 154.462 6.43008 153.541 6.43008H151.698C150.771 6.43008 150.313 6.02252 150.313 5.19591V3.44511C150.313 2.62424 150.771 2.21094 151.698 2.21094H153.541C154.462 2.21094 154.92 2.62424 154.92 3.44511V5.19591ZM153.999 5.19591V3.44511C153.999 3.16957 153.844 3.03755 153.541 3.03755H151.698C151.389 3.03755 151.235 3.16957 151.235 3.44511V5.22461C151.235 5.50015 151.389 5.63792 151.698 5.63792H153.541C153.844 5.60922 153.999 5.47145 153.999 5.19591ZM159.756 3.8986H157.467V3.07773H160.689V2.25112H156.545V6.3612H159.768C160.689 6.3612 161.152 5.95363 161.152 5.13277C161.152 4.3119 160.677 3.8986 159.756 3.8986ZM159.756 5.54033H157.467V4.71946H159.756C160.065 4.71946 160.22 4.85723 160.22 5.13277C160.242 5.40256 160.065 5.54033 159.756 5.54033ZM168.283 2.25112H167.362V5.54033H165.965V2.25112H165.044V5.54033H163.676V2.25112H162.755V6.3612H167.82V7.18781H168.741V5.54033H168.283V2.25112ZM174.962 3.07773H171.276V3.8986H174.041V4.71946H171.276V5.54033H174.962V6.3612H170.355V2.25112H174.962V3.07773ZM181.183 6.3612H177.984C177.057 6.3612 176.599 5.95363 176.599 5.13277V3.48529C176.599 2.66442 177.057 2.25112 177.984 2.25112H181.206V3.07773H177.984C177.675 3.07773 177.52 3.20976 177.52 3.48529V5.13277C177.52 5.40256 177.675 5.54033 177.984 5.54033H181.206L181.183 6.3612ZM187.404 3.07773H185.561V6.3612H184.639V3.07773H182.797V2.25112H187.375L187.404 3.07773ZM193.333 4.30042C193.438 4.19341 193.519 4.06441 193.57 3.92256C193.62 3.78071 193.639 3.62947 193.624 3.47955C193.624 2.65868 193.155 2.25112 192.24 2.25112H189.018V6.3612H192.24C193.161 6.3612 193.624 5.95363 193.624 5.13277C193.637 4.98121 193.618 4.82862 193.568 4.68512C193.517 4.54163 193.437 4.41049 193.333 4.30042ZM192.24 3.8986H189.95V3.07773H192.24C192.549 3.07773 192.703 3.20976 192.703 3.48529C192.703 3.76083 192.549 3.8986 192.24 3.8986ZM192.24 5.54033H189.95V4.71946H192.24C192.549 4.71946 192.703 4.85723 192.703 5.13277C192.703 5.40256 192.549 5.54033 192.24 5.54033ZM199.84 5.19591C199.84 6.02252 199.382 6.43008 198.46 6.43008H196.618C195.696 6.43008 195.238 6.02252 195.238 5.19591V3.44511C195.238 2.62424 195.696 2.21094 196.618 2.21094H198.46C199.382 2.21094 199.84 2.62424 199.84 3.44511V5.19591ZM198.918 5.19591V3.44511C198.918 3.16957 198.769 3.03755 198.46 3.03755H196.618C196.309 3.03755 196.16 3.16957 196.16 3.44511V5.22461C196.16 5.50015 196.309 5.63792 196.618 5.63792H198.46C198.769 5.60922 198.918 5.47145 198.918 5.19591Z" fill="#9E9E9E"/>
<path fill-rule="evenodd" clip-rule="evenodd" d="M84.6124 10.9995H78.918V17.3426H80.3431V12.2682H84.6124V10.9995ZM92.6703 12.8996V13.5368C92.6703 14.8073 91.9587 15.4406 90.5356 15.4368H86.9874V17.3426H85.5567V11.0282H90.5356C91.9626 11.0091 92.6741 11.6329 92.6703 12.8996ZM91.251 12.8996C91.251 12.4748 91.0106 12.2682 90.5356 12.2682H86.9874V14.1682H90.5414C91.0164 14.1682 91.2567 13.9558 91.2567 13.5368L91.251 12.8996ZM94.6848 16.074H95.4459C95.6119 16.074 95.8465 15.8616 96.1556 15.4368L97.0541 14.1682L93.9751 10.9995H95.8351L97.9125 13.112L99.389 10.9995H101.106C100.534 11.8491 99.7839 12.8709 98.9312 14.0649C98.6164 14.5069 98.3589 14.857 98.1758 15.1096L97.7351 15.6837C97.6264 15.8157 97.552 15.9018 97.5062 15.9477C97.4704 15.9754 97.4411 16.0107 97.4204 16.051C96.8481 16.9063 96.2758 17.3311 95.6119 17.3311H94.7019L94.6848 16.074ZM109.147 17.3426H107.727V12.2682H103.458V17.3426H102.033V11.0282H109.147V17.3426ZM117.565 17.3426H116.14V12.2682H111.876V17.3426H110.451V11.0282H117.565V17.3426ZM125.978 17.3426H124.558V16.074H120.289V17.3426H118.87V12.7963C118.87 11.5257 119.58 10.8905 120.999 10.8905H123.86C125.28 10.8905 125.989 11.5257 125.989 12.7963L125.978 17.3426ZM124.558 14.8054V12.7963C124.558 12.3715 124.324 12.1591 123.849 12.1591H120.987C120.518 12.1591 120.278 12.3715 120.278 12.7963V14.8054H124.558ZM139.73 17.3426H137.922L135.632 14.8054H134.03V17.3426H132.605V11.0282H134.03V13.5655H135.632L137.922 11.0282H139.736L136.874 14.1969L139.73 17.3426ZM147.788 15.5459C147.788 16.8164 147.078 17.4498 145.659 17.4459H142.798C141.371 17.4459 140.659 16.8126 140.663 15.5459V12.7963C140.663 11.5257 141.374 10.8905 142.798 10.8905H145.659C147.078 10.8905 147.788 11.5257 147.788 12.7963V15.5459ZM146.369 15.5459V12.7963C146.369 12.3715 146.128 12.1591 145.659 12.1591H142.798C142.323 12.1591 142.088 12.3715 142.088 12.7963V15.5459C142.088 15.9649 142.323 16.1773 142.798 16.1773H145.659C146.128 16.1773 146.369 15.9649 146.369 15.5459ZM157.631 17.3426H156.235V13.3646L153.374 17.3426L150.512 13.3646V17.3426H149.087V11.0282H150.512L153.374 15.0006L156.235 11.0282H157.66L157.631 17.3426ZM166.044 17.3426H164.625V12.2682H160.356V17.3426H158.931V11.0282H166.044V17.3426ZM174.463 17.3426H173.038V16.074H168.774V17.3426H167.349V12.7963C167.349 11.5277 168.064 10.8905 169.484 10.8905H172.345C173.764 10.8905 174.48 11.5277 174.48 12.7963L174.463 17.3426ZM173.038 14.8054V12.7963C173.038 12.3715 172.803 12.1591 172.328 12.1591H169.466C168.991 12.1591 168.757 12.3715 168.757 12.7963V14.8054H173.038ZM182.881 17.3426H181.456V14.8054H177.187V17.3426H175.767V11.0282H177.187V13.5655H181.456V10.9995H182.881V17.3426ZM191.294 11.0282H189.875L185.605 15.4253V10.9995H184.18V17.3426H185.605L189.875 12.9455V17.3426H191.294V11.0282ZM199.712 11.0282H198.287L194.007 15.3966V10.9995H192.582V17.3426H194.007L198.27 12.9455V17.3426H199.729L199.712 11.0282ZM196.851 10.3911H195.432V9.09375H196.868L196.851 10.3911Z" fill="#9E9E9E"/>
<path fill-rule="evenodd" clip-rule="evenodd" d="M115.333 28.1283H86.2034V34.6092H108.048V41.1072H86.2034V47.6053H115.333V54.0976H78.918V21.613H115.333V28.1283ZM158.421 54.1148H149.133L137.481 41.1072H129.291V54.0976H122.006V21.613H129.291V34.6092H137.481L149.133 21.613H158.421L143.856 37.8869L158.421 54.1148ZM199.684 54.1148H174.199C166.916 54.1148 163.274 50.862 163.274 44.3562V31.3601C163.274 24.8544 166.916 21.6016 174.199 21.6016H199.684V28.1283H174.199C171.761 28.1283 170.542 29.2056 170.542 31.3601V44.3562C170.542 46.5223 171.758 47.6053 174.188 47.6053H199.672L199.684 54.1148Z" fill="#9E9E9E"/>
<path d="M84.5907 62.5126C84.5907 63.5286 83.9612 64.0395 82.7079 64.0395H80.2012C78.9479 64.0395 78.3184 63.5286 78.3184 62.5126V60.3083C78.3184 59.2923 78.9479 58.7871 80.2012 58.7871H82.7079C83.9612 58.7871 84.5907 59.2923 84.5907 60.3083V62.5126ZM83.3317 62.5126V60.3083C83.3317 59.9696 83.1256 59.8031 82.7079 59.8031H80.2012C79.7834 59.8031 79.5717 59.9696 79.5717 60.3083V62.5126C79.5717 62.8513 79.7834 63.0235 80.2012 63.0235H82.7079C83.1256 63.0235 83.3317 62.8513 83.3317 62.5126Z" fill="#9E9E9E"/>
<path d="M90.4806 63.954H87.6191C86.4746 63.954 85.9023 63.489 85.9023 62.5533V61.6234C85.9023 60.6935 86.4746 60.2285 87.6191 60.2285H90.4806V61.1584H87.6191C87.2357 61.1584 87.0469 61.3134 87.0469 61.6234V62.5706C87.0469 62.8863 87.2357 63.0413 87.6191 63.0413H90.4806V63.954Z" fill="#9E9E9E"/>
<path d="M96.3753 63.9544H95.2307V62.5709H92.9415V63.9716H91.7969V60.2461H92.9415V61.641H95.2307V60.2461H96.3753V63.9544Z" fill="#9E9E9E"/>
<path d="M102.268 62.6396C102.268 63.5753 101.695 64.0403 100.551 64.0403H99.4064C98.2618 64.0403 97.6895 63.5753 97.6895 62.6396V61.5375C97.6895 60.6075 98.2618 60.1426 99.4064 60.1426H100.551C101.695 60.1426 102.268 60.6075 102.268 61.5375V62.6396ZM101.123 62.6396V61.5375C101.123 61.2275 100.934 61.0725 100.551 61.0725H99.4064C99.023 61.0725 98.8341 61.2275 98.8341 61.5375V62.6396C98.8341 62.9496 99.0287 63.1046 99.4064 63.1046H100.551C100.929 63.1046 101.117 62.9496 101.117 62.6396H101.123Z" fill="#9E9E9E"/>
<path d="M108.164 62.8118C108.164 63.5753 107.684 63.9599 106.722 63.9599H103.586V60.2344H106.745C107.695 60.2344 108.181 60.6247 108.187 61.3824C108.178 61.5188 108.136 61.6511 108.067 61.7687C107.997 61.8863 107.901 61.986 107.787 62.0598C107.904 62.1468 107.999 62.2602 108.065 62.3908C108.13 62.5214 108.164 62.6656 108.164 62.8118ZM107.02 61.4226C107.02 61.2562 106.922 61.17 106.728 61.17H104.731V61.635H106.739C106.917 61.6235 107.02 61.5547 107.02 61.4226ZM107.02 62.8233C107.02 62.6511 106.922 62.565 106.728 62.565H104.731V63.0357H106.739C106.917 63.0242 107.02 62.9496 107.02 62.8118V62.8233Z" fill="#9E9E9E"/>
<path d="M110.899 63.954C109.938 63.954 109.457 63.5579 109.457 62.7657C109.457 62.008 109.938 61.6177 110.899 61.6177H112.908C112.908 61.3134 112.713 61.1584 112.336 61.1584H109.675V60.2285H112.336C113.48 60.2285 114.053 60.6935 114.053 61.6234V63.954H110.899ZM110.899 63.0241H112.908V62.5706H110.899C110.705 62.5706 110.607 62.6509 110.607 62.8002C110.607 62.9494 110.705 63.0241 110.899 63.0241Z" fill="#9E9E9E"/>
<path d="M119.948 63.9544H118.803V62.5709H116.514V63.9716H115.369V60.2461H116.514V61.641H118.803V60.2461H119.948V63.9544Z" fill="#9E9E9E"/>
<path d="M125.842 62.6396C125.842 63.5753 125.27 64.0403 124.125 64.0403H122.981C121.836 64.0403 121.264 63.5753 121.264 62.6396V61.5375C121.264 60.6075 121.836 60.1426 122.981 60.1426H124.125C125.27 60.1426 125.842 60.6075 125.842 61.5375V62.6396ZM124.697 62.6396V61.5375C124.697 61.2275 124.509 61.0725 124.125 61.0725H122.981C122.597 61.0725 122.408 61.2275 122.408 61.5375V62.6396C122.408 62.9496 122.597 63.1046 122.981 63.1046H124.125C124.503 63.1046 124.692 62.9496 124.692 62.6396H124.697Z" fill="#9E9E9E"/>
<path d="M137.631 62.8118C137.631 63.5753 137.15 63.9599 136.188 63.9599H133.029V60.2344H136.206C137.156 60.2344 137.636 60.6247 137.648 61.3824C137.638 61.5188 137.597 61.6511 137.527 61.7687C137.458 61.8863 137.362 61.986 137.247 62.0598C137.365 62.1462 137.462 62.2593 137.528 62.3899C137.595 62.5206 137.63 62.6651 137.631 62.8118ZM136.486 61.4111C136.486 61.2447 136.389 61.1586 136.194 61.1586H134.185V61.6235H136.206C136.383 61.6235 136.48 61.5547 136.48 61.4226L136.486 61.4111ZM136.486 62.8118C136.486 62.6396 136.389 62.5535 136.194 62.5535H134.185V63.0242H136.206C136.383 63.0242 136.48 62.9496 136.48 62.8118H136.486Z" fill="#9E9E9E"/>
<path d="M147.325 63.9532H146.072V59.8891H144.818V58.873H147.325V63.9532Z" fill="#9E9E9E"/>
<path d="M154.892 62.4263C154.892 63.4424 154.262 63.9532 153.009 63.9532H149.249V62.9372H153.009C153.427 62.9372 153.638 62.765 153.638 62.4263V61.9212H150.514C149.26 61.9212 148.631 61.4103 148.631 60.3942C148.631 59.3782 149.26 58.873 150.514 58.873H153.02C154.274 58.873 154.903 59.3782 154.903 60.3942L154.892 62.4263ZM153.638 60.9109V60.3942C153.638 60.0556 153.427 59.8891 153.009 59.8891H150.514C150.096 59.8891 149.89 60.0556 149.89 60.3942C149.89 60.7329 150.096 60.9051 150.514 60.9051L153.638 60.9109Z" fill="#9E9E9E"/>
<path d="M162.458 58.873V59.8891L158.955 63.9532H157.445L160.941 59.8891H156.186V58.873H162.458Z" fill="#9E9E9E"/>
<path d="M169.399 62.4263C169.399 63.4424 168.775 63.9532 167.522 63.9532H165.639C164.385 63.9532 163.756 63.4424 163.756 62.4263V60.3942C163.756 59.3782 164.385 58.873 165.639 58.873H167.522C168.775 58.873 169.399 59.3782 169.399 60.3942V62.4263ZM168.145 62.4263V60.3942C168.145 60.0556 167.939 59.8891 167.522 59.8891H165.639C165.221 59.8891 165.009 60.0556 165.009 60.3942V62.4263C165.009 62.765 165.221 62.9372 165.639 62.9372H167.522C167.934 62.9372 168.14 62.765 168.14 62.4263H168.145Z" fill="#9E9E9E"/>
<path d="M178.017 61.6234H179.733C179.911 61.6234 180.008 61.5431 180.014 61.3881C180.02 61.2331 179.911 61.1585 179.733 61.1585H176.872V60.2285H179.733C180.683 60.2285 181.164 60.6074 181.164 61.3766C181.164 62.1458 180.683 62.5591 179.733 62.5591H178.017C177.828 62.5591 177.73 62.6395 177.73 62.8002C177.73 62.9609 177.828 63.0298 178.017 63.0298H180.878V63.9597H178.017C177.061 63.9597 176.58 63.5694 176.58 62.8117C176.58 62.0539 177.061 61.6234 178.017 61.6234Z" fill="#9E9E9E"/>
<path d="M187.076 62.6396C187.076 63.5753 186.504 64.0403 185.359 64.0403H184.215C183.07 64.0403 182.498 63.5753 182.498 62.6396V61.5375C182.498 60.6075 183.07 60.1426 184.215 60.1426H185.359C186.504 60.1426 187.076 60.6075 187.076 61.5375V62.6396ZM185.932 62.6396V61.5375C185.932 61.2275 185.737 61.0725 185.359 61.0725H184.215C183.831 61.0725 183.643 61.2275 183.643 61.5375V62.6396C183.643 62.9496 183.831 63.1046 184.215 63.1046H185.359C185.731 63.1046 185.926 62.9496 185.926 62.6396H185.932Z" fill="#9E9E9E"/>
<path d="M192.967 64.4186C192.967 65.3485 192.395 65.8192 191.25 65.8192H189.533V64.8663H191.25C191.634 64.8663 191.822 64.7114 191.822 64.4014V63.9364H190.106C188.961 63.9364 188.389 63.4714 188.389 62.5358V61.6058C188.389 60.6759 188.961 60.2109 190.106 60.2109H192.967V64.4186ZM191.822 61.1581H190.106C189.722 61.1581 189.533 61.3131 189.533 61.6231V62.5702C189.533 62.8859 189.722 63.0409 190.106 63.0409H191.822V61.1581Z" fill="#9E9E9E"/>
<path d="M194.889 64.8661H195.416C195.599 64.8661 195.839 64.6939 196.137 64.3437L196.469 63.7697L194.266 60.1992H195.548L197.139 62.7824L198.718 60.1992H200L197.711 63.9247L197.236 64.6939C197.063 65.0246 196.803 65.3016 196.484 65.4948C196.165 65.6881 195.8 65.7902 195.427 65.7903H194.895L194.889 64.8661Z" fill="#9E9E9E"/>
</g>
<defs>
<clipPath id="clip0_1680_2943">
<rect width="200" height="68" fill="white"/>
</clipPath>
</defs>
</svg>
