<svg width="33" height="32" viewBox="0 0 33 32" fill="none" xmlns="http://www.w3.org/2000/svg">
<g clip-path="url(#clip0_1134_287)">
<path fill-rule="evenodd" clip-rule="evenodd" d="M3.84045 0.0380859H28.8292C30.7362 0.0380859 32.2966 1.59842 32.2966 3.50549V28.4942C32.2966 30.4013 30.7362 31.9616 28.8292 31.9616H19.0702V20.5577H23.5098L24.3554 15.0489H19.0702V11.4747C19.0702 9.96773 19.8083 8.49933 22.1755 8.49933H24.5783V3.80931C24.5783 3.80931 22.3976 3.4377 20.3133 3.4377C15.9605 3.4377 13.1149 6.07507 13.1149 10.8512V15.0489H8.27711V20.5577H13.1149V31.9616H3.84045C1.93338 31.9616 0.373047 30.4013 0.373047 28.4942V3.50549C0.373047 1.59842 1.93338 0.0380859 3.84045 0.0380859Z" fill="#5B5B5B"/>
</g>
<defs>
<clipPath id="clip0_1134_287">
<rect width="31.9996" height="31.9996" fill="white" transform="translate(0.333984)"/>
</clipPath>
</defs>
</svg>
