<svg width="32" height="35" viewBox="0 0 32 35" fill="none" xmlns="http://www.w3.org/2000/svg">
<path d="M31.9996 0H25.7773V17.3333H31.9996V0Z" fill="#EBECEC"/>
<path d="M25.7778 0H16V17.3333H25.7778V0Z" fill="#C7D4E0"/>
<path d="M32 17.3333H16V34.6666H32V17.3333Z" fill="#5B5B5B"/>
<path d="M19.5981 24.1647L20.0691 26.0941C20.0909 26.1801 20.112 26.2709 20.1303 26.3655C20.1495 26.4591 20.1687 26.5679 20.1897 26.6899C20.215 26.5452 20.2369 26.4269 20.2544 26.3333C20.2727 26.2397 20.2902 26.1603 20.3068 26.0941L20.7472 24.1647H21.7793L20.7193 28.222H19.772L19.3089 26.4894C19.2914 26.4289 19.2634 26.3097 19.2241 26.1319C19.2075 26.0524 19.1935 25.9909 19.183 25.9465C19.1751 25.9853 19.1629 26.0401 19.1471 26.1101C19.1078 26.2898 19.0781 26.4156 19.058 26.4894L18.6019 28.222H17.652L16.5938 24.1647H17.6266L18.0566 26.1045C18.0775 26.2047 18.0976 26.304 18.1168 26.4043C18.1369 26.5036 18.1553 26.6067 18.1719 26.7116C18.1877 26.6341 18.2042 26.5528 18.2217 26.4676C18.2401 26.3825 18.2672 26.2615 18.303 26.1045L18.774 24.1647H19.5981ZM25.98 26.2019C25.98 26.4941 25.9302 26.7675 25.8315 27.0218C25.7327 27.2772 25.5885 27.5051 25.3988 27.7065C25.2075 27.9061 24.989 28.0593 24.7434 28.1681C24.4979 28.2759 24.2427 28.3298 23.9788 28.3298C23.7106 28.3298 23.4537 28.2759 23.209 28.1681C22.9643 28.0593 22.7493 27.9061 22.5632 27.7065C22.37 27.5051 22.224 27.2762 22.1236 27.019C22.024 26.7627 21.9742 26.4903 21.9742 26.2019C21.9742 25.9116 22.024 25.6392 22.1236 25.3829C22.224 25.1275 22.37 24.8987 22.5632 24.6972C22.7493 24.4977 22.9643 24.3445 23.209 24.2357C23.4537 24.1279 23.7106 24.074 23.9788 24.074C24.2445 24.074 24.5014 24.1279 24.7478 24.2357C24.9942 24.3445 25.211 24.4977 25.3988 24.6972C25.5868 24.8968 25.7301 25.1247 25.8306 25.3819C25.9302 25.6382 25.98 25.9116 25.98 26.2019ZM23.9771 27.3935C24.2602 27.3935 24.4944 27.281 24.6797 27.0559C24.8649 26.8298 24.9575 26.5452 24.9575 26.2019C24.9575 25.8624 24.8641 25.5787 24.6762 25.3507C24.4883 25.1237 24.255 25.0102 23.9771 25.0102C23.6939 25.0102 23.4597 25.1237 23.2745 25.3498C23.0892 25.5758 22.9966 25.8604 22.9966 26.2019C22.9966 26.5489 23.0875 26.8346 23.2701 27.0578C23.4528 27.2819 23.6887 27.3935 23.9771 27.3935ZM29.1731 24.1647L29.6442 26.0941C29.666 26.1801 29.687 26.2709 29.7053 26.3655C29.7245 26.4591 29.7437 26.5679 29.7647 26.6899C29.7901 26.5452 29.8119 26.4269 29.8294 26.3333C29.8477 26.2397 29.8652 26.1603 29.8818 26.0941L30.3223 24.1647H31.3543L30.2943 28.222H29.347L28.8839 26.4894C28.8664 26.4289 28.8384 26.3097 28.7991 26.1319C28.7825 26.0524 28.7685 25.9909 28.758 25.9465C28.7502 25.9853 28.7379 26.0401 28.7222 26.1101C28.6829 26.2898 28.6532 26.4156 28.6331 26.4894L28.1769 28.222H27.227L26.1688 24.1647H27.2017L27.6316 26.1045C27.6526 26.2047 27.6727 26.304 27.6919 26.4043C27.712 26.5036 27.7304 26.6067 27.7469 26.7116C27.7627 26.6341 27.7793 26.5528 27.7967 26.4676C27.8151 26.3825 27.8422 26.2615 27.878 26.1045L28.3491 24.1647H29.1731Z" fill="#FEFEFE"/>
<path d="M20.8879 32.7409H20.1105L19.9319 31.3529C19.9191 31.2549 19.9078 31.1464 19.8971 31.0259C19.8872 30.9062 19.8772 30.7753 19.8694 30.6339C19.8494 30.7701 19.8118 30.9392 19.7548 31.1427C19.7421 31.1846 19.7328 31.216 19.7271 31.237L19.3131 32.7409H18.7583L18.3444 31.237C18.3387 31.216 18.3302 31.1846 18.3188 31.1427C18.2605 30.9392 18.2227 30.7708 18.2043 30.6361C18.1964 30.7573 18.1865 30.8778 18.1751 30.9968C18.1644 31.1157 18.1509 31.2347 18.136 31.3529L17.9568 32.7409H17.1836L17.6544 29.531H18.4774L18.9376 31.1861C18.9404 31.198 18.9461 31.2168 18.9547 31.2436C18.9973 31.3911 19.0244 31.5175 19.0357 31.623C19.0414 31.5654 19.0514 31.5025 19.067 31.433C19.082 31.3634 19.1034 31.2796 19.1297 31.1816L19.5941 29.531H20.4192L20.8879 32.7409ZM21.3353 32.7409V29.531H23.2045V30.2358H22.1462V30.7925H23.1441V31.4793H22.1462V32.0226H23.2045V32.7409H21.3353ZM23.7544 32.7409V29.531H24.3902C24.8639 29.531 25.199 29.5542 25.3952 29.6014C25.5923 29.6478 25.7644 29.7263 25.913 29.8355C26.1066 29.9777 26.2531 30.1595 26.3527 30.3803C26.4529 30.6017 26.5027 30.8546 26.5027 31.1382C26.5027 31.4217 26.4529 31.6739 26.3527 31.8954C26.2531 32.1169 26.1066 32.2987 25.913 32.4408C25.7659 32.5486 25.598 32.6256 25.4087 32.672C25.2203 32.7177 24.9272 32.7409 24.5304 32.7409H24.3902H23.7544ZM24.578 32.0226H24.7174C25.0439 32.0226 25.2829 31.9523 25.4329 31.8109C25.583 31.6702 25.6577 31.4465 25.6577 31.1389C25.6577 30.8322 25.583 30.6077 25.4329 30.464C25.2829 30.3211 25.0439 30.2493 24.7174 30.2493H24.578V32.0226ZM27.0454 32.7409V29.531H27.8861V32.7409H27.0454ZM29.3628 31.5422H30.19L29.8792 30.4827C29.8699 30.4505 29.8564 30.3989 29.84 30.3271C29.823 30.2553 29.8016 30.1633 29.7753 30.051C29.7576 30.1296 29.7398 30.2052 29.722 30.277C29.7049 30.3481 29.6872 30.4169 29.6694 30.4827L29.3628 31.5422ZM28.1971 32.7409L29.2504 29.531H30.2924L31.3465 32.7409H30.5193L30.365 32.1662H29.1835L29.0249 32.7409H28.1971Z" fill="#FEFEFE"/>
<path fill-rule="evenodd" clip-rule="evenodd" d="M16 17.3333V34.6666H0L16 17.3333Z" fill="#D10373"/>
<path fill-rule="evenodd" clip-rule="evenodd" d="M0 17.3333V34.6666H16L0 17.3333Z" fill="#78263E"/>
<path fill-rule="evenodd" clip-rule="evenodd" d="M0 34.6667H16L7.99971 26L0 34.6667Z" fill="#451C1C"/>
<path d="M25.7725 15.0865C29.1271 15.0865 31.7028 12.1373 31.7028 8.50425C31.7028 4.8712 29.1315 1.92603 25.7769 1.92603C22.4223 1.92603 19.5547 4.8712 19.5547 8.50425C19.5547 12.1373 22.4179 15.0865 25.7725 15.0865Z" fill="#006EC7"/>
<path fill-rule="evenodd" clip-rule="evenodd" d="M25.7813 15.0865C22.3695 15.0865 19.5547 12.1685 19.5547 8.53374C19.5547 4.89898 22.3695 1.92603 25.7769 1.92603L25.7813 15.0865Z" fill="#2905A1"/>
<path fill-rule="evenodd" clip-rule="evenodd" d="M16 0V17.3333H0L16 0Z" fill="#FFE817"/>
<path fill-rule="evenodd" clip-rule="evenodd" d="M0 0V17.3333H16L0 0Z" fill="#F7D117"/>
<path fill-rule="evenodd" clip-rule="evenodd" d="M0 17.3334H16L7.99971 8.66675L0 17.3334Z" fill="#FBBC05"/>
</svg>
