<svg width="32" height="32" viewBox="0 0 32 32" fill="none" xmlns="http://www.w3.org/2000/svg">
<path fill-rule="evenodd" clip-rule="evenodd" d="M3 0.000488281C1.34315 0.000488281 0 1.34364 0 3.00049V29.0001C0 30.6569 1.34315 32.0001 3 32.0001H28.9996C30.6564 32.0001 31.9996 30.6569 31.9996 29.0001V3.00049C31.9996 1.34363 30.6564 0.000488281 28.9996 0.000488281H3ZM27.9285 6.64343C27.9285 7.89652 26.9127 8.91235 25.6596 8.91235C24.4065 8.91235 23.3907 7.89652 23.3907 6.64343C23.3907 5.39034 24.4065 4.37451 25.6596 4.37451C26.9127 4.37451 27.9285 5.39034 27.9285 6.64343ZM23.9193 16.0007C23.9193 20.3752 20.3731 23.9213 15.9987 23.9213C11.6243 23.9213 8.07812 20.3752 8.07812 16.0007C8.07812 11.6263 11.6243 8.08016 15.9987 8.08016C20.3731 8.08016 23.9193 11.6263 23.9193 16.0007Z" fill="#5B5B5B"/>
</svg>
