<svg width="50" height="50" viewBox="0 0 50 50" fill="none" xmlns="http://www.w3.org/2000/svg">
<path d="M49.9996 0H40.2773V25H49.9996V0Z" fill="#EBECEC"/>
<path d="M40.2778 0H25V25H40.2778V0Z" fill="#C7D4E0"/>
<path d="M50 25H25V50H50V25Z" fill="#5B5B5B"/>
<path d="M30.62 34.8531L31.356 37.6358C31.3901 37.7599 31.423 37.8909 31.4516 38.0273C31.4816 38.1623 31.5116 38.3191 31.5445 38.4951C31.5841 38.2864 31.6182 38.1159 31.6455 37.9808C31.6741 37.8458 31.7014 37.7312 31.7274 37.6358L32.4156 34.8531H34.0281L32.3719 40.7049H30.8918L30.1681 38.206C30.1408 38.1187 30.0971 37.9467 30.0357 37.6903C30.0097 37.5757 29.9879 37.487 29.9715 37.4229C29.9591 37.4789 29.9401 37.558 29.9154 37.659C29.8541 37.9181 29.8076 38.0995 29.7762 38.206L29.0634 40.7049H27.5793L25.9258 34.8531H27.5397L28.2114 37.6508C28.2442 37.7953 28.2756 37.9386 28.3056 38.0832C28.337 38.2264 28.3658 38.3751 28.3917 38.5265C28.4163 38.4146 28.4422 38.2973 28.4695 38.1746C28.4982 38.0518 28.5405 37.8772 28.5964 37.6508L29.3325 34.8531H30.62ZM40.5918 37.7912C40.5918 38.2128 40.514 38.607 40.3597 38.9739C40.2054 39.3421 39.9801 39.6709 39.6837 39.9614C39.3847 40.2493 39.0434 40.4702 38.6597 40.6271C38.2761 40.7826 37.8773 40.8604 37.465 40.8604C37.0458 40.8604 36.6444 40.7826 36.2621 40.6271C35.8798 40.4702 35.5438 40.2493 35.253 39.9614C34.9512 39.6709 34.7231 39.3408 34.5662 38.9698C34.4105 38.6001 34.3327 38.2073 34.3327 37.7912C34.3327 37.3726 34.4105 36.9797 34.5662 36.61C34.7231 36.2417 34.9512 35.9116 35.253 35.6211C35.5438 35.3333 35.8798 35.1123 36.2621 34.9554C36.6444 34.7999 37.0458 34.7222 37.465 34.7222C37.8801 34.7222 38.2815 34.7999 38.6665 34.9554C39.0516 35.1123 39.3902 35.3333 39.6837 35.6211C39.9774 35.9089 40.2013 36.2376 40.3583 36.6086C40.514 36.9783 40.5918 37.3726 40.5918 37.7912ZM37.4623 39.51C37.9047 39.51 38.2706 39.3477 38.5601 39.023C38.8495 38.697 38.9942 38.2865 38.9942 37.7912C38.9942 37.3016 38.8481 36.8924 38.5545 36.5636C38.261 36.2363 37.8964 36.0725 37.4623 36.0725C37.0198 36.0725 36.6538 36.2362 36.3644 36.5622C36.075 36.8883 35.9303 37.2988 35.9303 37.7912C35.9303 38.2918 36.0723 38.7038 36.3576 39.0257C36.643 39.349 37.0117 39.51 37.4623 39.51ZM45.581 34.8531L46.317 37.6358C46.3511 37.7599 46.384 37.8909 46.4126 38.0273C46.4426 38.1623 46.4726 38.3191 46.5055 38.4951C46.545 38.2864 46.5792 38.1159 46.6065 37.9808C46.6351 37.8458 46.6624 37.7312 46.6884 37.6358L47.3766 34.8531H48.9891L47.3329 40.7049H45.8528L45.1291 38.206C45.1018 38.1187 45.0581 37.9467 44.9966 37.6903C44.9707 37.5757 44.9488 37.487 44.9325 37.4229C44.9202 37.4789 44.9011 37.558 44.8765 37.659C44.815 37.9181 44.7687 38.0995 44.7372 38.206L44.0245 40.7049H42.5403L40.8868 34.8531H42.5006L43.1725 37.6508C43.2052 37.7953 43.2366 37.9386 43.2666 38.0832C43.298 38.2264 43.3267 38.3751 43.3527 38.5265C43.3772 38.4146 43.4031 38.2973 43.4305 38.1746C43.4592 38.0518 43.5015 37.8772 43.5575 37.6508L44.2934 34.8531H45.581Z" fill="#FEFEFE"/>
<path d="M32.6395 47.2222H31.4249L31.1459 45.2203C31.1259 45.0789 31.1081 44.9224 31.0914 44.7487C31.0759 44.576 31.0603 44.3872 31.0481 44.1833C31.0169 44.3796 30.9581 44.6235 30.8691 44.917C30.8492 44.9775 30.8347 45.0228 30.8258 45.053L30.179 47.2222H29.3121L28.6654 45.053C28.6564 45.0228 28.6431 44.9775 28.6253 44.917C28.5342 44.6235 28.4752 44.3807 28.4464 44.1865C28.4341 44.3612 28.4186 44.5351 28.4007 44.7066C28.3841 44.8782 28.363 45.0497 28.3397 45.2203L28.0596 47.2222H26.8516L27.5873 42.5925H28.8731L29.5922 44.9796C29.5966 44.9969 29.6055 45.0239 29.6189 45.0627C29.6855 45.2753 29.7278 45.4577 29.7455 45.6099C29.7545 45.5268 29.77 45.4361 29.7944 45.3357C29.8178 45.2354 29.8512 45.1145 29.8923 44.9732L30.618 42.5925H31.9072L32.6395 47.2222ZM33.3386 47.2222V42.5925H36.2593V43.6091H34.6056V44.412H36.1648V45.4026H34.6056V46.1861H36.2593V47.2222H33.3386ZM37.1184 47.2222V42.5925H38.1119C38.8521 42.5925 39.3756 42.626 39.6823 42.694C39.9901 42.7609 40.2591 42.8742 40.4913 43.0317C40.7937 43.2368 41.0226 43.499 41.1782 43.8174C41.3349 44.1368 41.4127 44.5016 41.4127 44.9106C41.4127 45.3195 41.3349 45.6833 41.1782 46.0027C41.0226 46.3221 40.7937 46.5843 40.4913 46.7893C40.2614 46.9448 39.999 47.0559 39.7034 47.1228C39.4089 47.1887 38.951 47.2222 38.3309 47.2222H38.1119H37.1184ZM38.4053 46.1861H38.6231C39.1332 46.1861 39.5067 46.0847 39.7412 45.8808C39.9757 45.6778 40.0924 45.3552 40.0924 44.9116C40.0924 44.4693 39.9757 44.1455 39.7412 43.9383C39.5067 43.7321 39.1332 43.6286 38.6231 43.6286H38.4053V46.1861ZM42.2607 47.2222V42.5925H43.5743V47.2222H42.2607ZM45.8816 45.4933H47.1741L46.6884 43.9652C46.674 43.9188 46.6528 43.8443 46.6273 43.7408C46.6006 43.6372 46.5672 43.5044 46.5262 43.3426C46.4984 43.4559 46.4706 43.5649 46.4428 43.6685C46.4161 43.771 46.3884 43.8703 46.3606 43.9652L45.8816 45.4933ZM44.0601 47.2222L45.7059 42.5925H47.3341L48.9812 47.2222H47.6886L47.4475 46.3934H45.6015L45.3536 47.2222H44.0601Z" fill="#FEFEFE"/>
<path fill-rule="evenodd" clip-rule="evenodd" d="M25 25V50H0L25 25Z" fill="#D10373"/>
<path fill-rule="evenodd" clip-rule="evenodd" d="M0 25V50H25L0 25Z" fill="#78263E"/>
<path fill-rule="evenodd" clip-rule="evenodd" d="M0 50H25L12.4995 37.5L0 50Z" fill="#451C1C"/>
<path d="M40.2701 21.7593C45.5116 21.7593 49.5362 17.5056 49.5362 12.2656C49.5362 7.02567 45.5185 2.77783 40.2769 2.77783C35.0353 2.77783 30.5547 7.02567 30.5547 12.2656C30.5547 17.5056 35.0285 21.7593 40.2701 21.7593Z" fill="#006EC7"/>
<path fill-rule="evenodd" clip-rule="evenodd" d="M40.2837 21.7593C34.9528 21.7593 30.5547 17.5506 30.5547 12.3082C30.5547 7.06575 34.9528 2.77783 40.2769 2.77783L40.2837 21.7593Z" fill="#2905A1"/>
<path fill-rule="evenodd" clip-rule="evenodd" d="M25 0V25H0L25 0Z" fill="#FFE817"/>
<path fill-rule="evenodd" clip-rule="evenodd" d="M0 0V25H25L0 0Z" fill="#F7D117"/>
<path fill-rule="evenodd" clip-rule="evenodd" d="M0 25H25L12.4995 12.5L0 25Z" fill="#FBBC05"/>
</svg>
