<svg width="72" height="72" viewBox="0 0 72 72" fill="none" xmlns="http://www.w3.org/2000/svg">
<path d="M71.998 0H57.998V36H71.998V0Z" fill="#EBECEC"/>
<path d="M58 0H36V36H58V0Z" fill="#C7D4E0"/>
<path d="M72 36H36V72H72V36Z" fill="#5B5B5B"/>
<path d="M44.0918 50.1885L45.1516 54.1957C45.2007 54.3743 45.248 54.5629 45.2892 54.7594C45.3324 54.9538 45.3757 55.1796 45.423 55.433C45.4799 55.1326 45.5291 54.8869 45.5684 54.6925C45.6096 54.4981 45.649 54.3331 45.6863 54.1957L46.6774 50.1885H48.9994L46.6145 58.6151H44.4831L43.441 55.0167C43.4017 54.891 43.3388 54.6434 43.2503 54.2741C43.2129 54.1091 43.1814 53.9814 43.1579 53.8891C43.1401 53.9697 43.1126 54.0835 43.0771 54.229C42.9887 54.6021 42.9219 54.8634 42.8767 55.0167L41.8503 58.6151H39.713L37.332 50.1885H39.656L40.6234 54.2172C40.6706 54.4253 40.7157 54.6317 40.759 54.8399C40.8042 55.0461 40.8456 55.2602 40.8829 55.4782C40.9183 55.3171 40.9556 55.1483 40.995 54.9714C41.0364 54.7946 41.0972 54.5433 41.1778 54.2172L42.2377 50.1885H44.0918ZM58.4511 54.4194C58.4511 55.0264 58.3391 55.5941 58.1169 56.1224C57.8947 56.6528 57.5702 57.1262 57.1435 57.5446C56.7129 57.9591 56.2214 58.2772 55.6688 58.5032C55.1165 58.727 54.5423 58.8391 53.9485 58.8391C53.3448 58.8391 52.7669 58.727 52.2163 58.5032C51.6658 58.2772 51.182 57.9591 50.7632 57.5446C50.3287 57.1262 50.0002 56.6508 49.7742 56.1166C49.5501 55.5843 49.4379 55.0186 49.4379 54.4194C49.4379 53.8166 49.5501 53.2508 49.7742 52.7185C50.0002 52.1881 50.3287 51.7128 50.7632 51.2944C51.182 50.88 51.6658 50.5618 52.2163 50.3359C52.7669 50.1119 53.3448 50 53.9485 50C54.5462 50 55.1242 50.1119 55.6787 50.3359C56.2331 50.5618 56.7208 50.88 57.1435 51.2944C57.5664 51.7089 57.8888 52.1822 58.1149 52.7164C58.3391 53.2488 58.4511 53.8166 58.4511 54.4194ZM53.9446 56.8945C54.5816 56.8945 55.1086 56.6607 55.5254 56.1932C55.9422 55.7237 56.1506 55.1326 56.1506 54.4194C56.1506 53.7144 55.9402 53.1251 55.5174 52.6517C55.0947 52.1803 54.5698 51.9445 53.9446 51.9445C53.3074 51.9445 52.7804 52.1803 52.3637 52.6497C51.9469 53.1192 51.7385 53.7104 51.7385 54.4194C51.7385 55.1403 51.943 55.7336 52.3539 56.1971C52.7648 56.6626 53.2957 56.8945 53.9446 56.8945ZM65.6356 50.1885L66.6955 54.1957C66.7445 54.3743 66.7918 54.5629 66.833 54.7594C66.8762 54.9538 66.9195 55.1796 66.9668 55.433C67.0238 55.1326 67.0729 54.8869 67.1122 54.6925C67.1534 54.4981 67.1928 54.3331 67.2302 54.1957L68.2212 50.1885H70.5432L68.1583 58.6151H66.0269L64.9848 55.0167C64.9455 54.891 64.8826 54.6434 64.7941 54.2741C64.7567 54.1091 64.7252 53.9814 64.7017 53.8891C64.684 53.9697 64.6564 54.0835 64.621 54.229C64.5325 54.6021 64.4658 54.8634 64.4205 55.0167L63.3941 58.6151H61.2569L58.8758 50.1885H61.1998L62.1673 54.2172C62.2144 54.4253 62.2596 54.6317 62.3029 54.8399C62.348 55.0461 62.3894 55.2602 62.4267 55.4782C62.4621 55.3171 62.4994 55.1483 62.5388 54.9714C62.5802 54.7946 62.641 54.5433 62.7217 54.2172L63.7815 50.1885H65.6356Z" fill="#FEFEFE"/>
<path d="M47.0007 67.9999H45.2516L44.8498 65.1173C44.821 64.9136 44.7954 64.6883 44.7714 64.4381C44.7491 64.1895 44.7266 63.9176 44.709 63.6239C44.6642 63.9067 44.5794 64.2579 44.4513 64.6805C44.4226 64.7676 44.4017 64.8328 44.3889 64.8764L43.4575 67.9999H42.2092L41.2779 64.8764C41.265 64.8328 41.2459 64.7676 41.2202 64.6805C41.089 64.2579 41.0041 63.9083 40.9626 63.6285C40.9449 63.8802 40.9225 64.1305 40.8968 64.3775C40.8729 64.6246 40.8425 64.8716 40.809 65.1173L40.4056 67.9999H38.666L39.7254 61.3333H41.577L42.6125 64.7707C42.6189 64.7955 42.6317 64.8344 42.6509 64.8903C42.7469 65.1965 42.8078 65.4591 42.8333 65.6782C42.8462 65.5586 42.8685 65.4279 42.9037 65.2834C42.9374 65.1389 42.9855 64.9649 43.0447 64.7614L44.0897 61.3333H45.9461L47.0007 67.9999ZM48.0074 67.9999V61.3333H52.2131V62.7971H49.8318V63.9533H52.0771V65.3798H49.8318V66.508H52.2131V67.9999H48.0074ZM53.4502 67.9999V61.3333H54.881C55.9467 61.3333 56.7006 61.3815 57.1422 61.4794C57.5855 61.5757 57.9729 61.7389 58.3073 61.9657C58.7427 62.261 59.0724 62.6386 59.2964 63.0971C59.522 63.5571 59.6341 64.0823 59.6341 64.6713C59.6341 65.2601 59.522 65.7839 59.2964 66.2439C59.0724 66.7039 58.7427 67.0815 58.3073 67.3766C57.9761 67.6006 57.5984 67.7606 57.1726 67.8568C56.7486 67.9518 56.0892 67.9999 55.1963 67.9999H54.881H53.4502ZM55.3034 66.508H55.6171C56.3516 66.508 56.8894 66.362 57.2271 66.0683C57.5648 65.7761 57.7329 65.3115 57.7329 64.6727C57.7329 64.0357 57.5648 63.5695 57.2271 63.2711C56.8894 62.9743 56.3516 62.8251 55.6171 62.8251H55.3034V66.508ZM60.8552 67.9999V61.3333H62.7467V67.9999H60.8552ZM66.0693 65.5104H67.9305L67.2311 63.3099C67.2103 63.243 67.1798 63.1358 67.143 62.9868C67.1047 62.8376 67.0566 62.6464 66.9974 62.4133C66.9575 62.5765 66.9175 62.7334 66.8774 62.8826C66.839 63.0302 66.799 63.1732 66.759 63.3099L66.0693 65.5104ZM63.4463 67.9999L65.8163 61.3333H68.1609L70.5327 67.9999H68.6714L68.3242 66.8064H65.6659L65.309 67.9999H63.4463Z" fill="#FEFEFE"/>
<path fill-rule="evenodd" clip-rule="evenodd" d="M36 36V72H0L36 36Z" fill="#D10373"/>
<path fill-rule="evenodd" clip-rule="evenodd" d="M0 36V72H36L0 36Z" fill="#78263E"/>
<path fill-rule="evenodd" clip-rule="evenodd" d="M0 72H36L17.9993 54L0 72Z" fill="#451C1C"/>
<path d="M57.9901 31.3333C65.538 31.3333 71.3333 25.208 71.3333 17.6625C71.3333 10.1169 65.5479 4 58 4C50.4521 4 44 10.1169 44 17.6625C44 25.208 50.4423 31.3333 57.9901 31.3333Z" fill="#006EC7"/>
<path fill-rule="evenodd" clip-rule="evenodd" d="M58.0098 31.3333C50.3333 31.3333 44 25.2728 44 17.7237C44 10.1746 50.3333 4 58 4L58.0098 31.3333Z" fill="#2905A1"/>
<path fill-rule="evenodd" clip-rule="evenodd" d="M36 0V36H0L36 0Z" fill="#FCE864"/>
<path fill-rule="evenodd" clip-rule="evenodd" d="M0 0V36H36L0 0Z" fill="#FFE817"/>
<path fill-rule="evenodd" clip-rule="evenodd" d="M0 36H36L17.9993 18L0 36Z" fill="#F7D117"/>
</svg>
