<svg width="113" height="70" viewBox="0 0 113 70" fill="none" xmlns="http://www.w3.org/2000/svg">
<path d="M102.914 70H0L9.33053 39.491H112.245L102.914 70Z" fill="#00B2C3"/>
<path d="M43.9052 28.0531V8.96754H52.2955V15.2828H56.154V8.96754H64.5302V28.0531H56.154V21.7242H52.2955V28.0531H43.9052ZM85.4078 17.4299L88.593 8.96754H80.4131L77.8594 15.2828H76.3719V8.96754H67.9816V28.0531H76.3719V21.7242H78.3644L80.9178 28.0531H89.2944L85.4078 17.4299ZM104.167 11.0725C103.147 11.0386 102.131 11.223 101.187 11.612C100.244 12.0018 99.3937 12.588 98.6948 13.3316C98.7539 12.471 99.0457 11.6421 99.5396 10.9353C100.035 10.2275 100.712 9.66864 101.501 9.31851C104.307 8.12589 107.562 8.95349 109.919 6.94651V0C108.107 0.641572 106.221 1.0562 104.307 1.23478C101.474 1.53242 98.7415 2.44227 96.2956 3.90152C92.8859 6.04822 90.4591 9.51486 90.4591 16.7139C90.4591 26.032 95.8468 28.657 101.403 28.657C106.959 28.657 111.757 25.8497 111.757 19.7738C111.757 13.9071 108.264 11.0866 104.139 11.0866L104.167 11.0725ZM101.122 22.2293C99.1019 22.2293 98.6249 20.6432 98.6249 19.4224C98.6249 18.2017 99.1019 16.616 101.122 16.616C103.143 16.616 103.578 18.16 103.578 19.4224C103.578 20.6857 103.101 22.2293 101.122 22.2293ZM41.001 18.5105C41.001 13.8232 38.8965 9.38837 34.07 8.4905L33.677 8.42022C33.3963 8.42022 33.1017 8.34995 32.807 8.33589H31.6704C30.2764 8.40038 28.927 8.84725 27.7698 9.6273C27.1176 10.0705 26.5357 10.6099 26.0438 11.2271L25.2586 8.96754H18.6641V35.6312H27.0825V26.8882C27.7309 27.4582 28.4839 27.8964 29.2994 28.1796C30.2541 28.5363 31.2691 28.7033 32.2875 28.6711C38.377 28.6711 41.0287 23.7452 41.0287 18.4965L41.001 18.5105ZM29.4676 21.9631C28.9683 21.9697 28.4765 21.8432 28.0421 21.5964C27.6082 21.3496 27.2478 20.9921 26.9981 20.5592V16.3493C27.256 15.9244 27.6189 15.5722 28.0504 15.3266C28.4827 15.0815 28.9708 14.95 29.4676 14.9455C31.4882 14.9455 32.3722 16.7003 32.3722 18.3981C32.3854 18.6085 32.3854 18.8197 32.3722 19.0293C32.3511 19.7676 32.0486 20.4687 31.527 20.9908C31.0046 21.5125 30.3033 21.8151 29.5659 21.8366L29.4676 21.9631Z" fill="#2C384A"/>
</svg>
