<svg width="113" height="70" viewBox="0 0 113 70" fill="none" xmlns="http://www.w3.org/2000/svg">
<g clip-path="url(#clip0_1721_474)">
<path d="M102.781 70.0003H-0.134766L9.19587 39.491H112.111L102.781 70.0003Z" fill="#5B5B5B"/>
<path d="M43.7668 28.0529V8.96716H52.1572V15.2825H56.0158V8.96716H64.3921V28.0529H56.0158V21.7239H52.1572V28.0529H43.7668ZM85.2699 17.4296L88.4552 8.96716H80.2752L77.7214 15.2825H76.2339V8.96716H67.8436V28.0529H76.2339V21.7239H78.2264L80.7798 28.0529H89.1566L85.2699 17.4296ZM104.029 11.0721C103.009 11.0382 101.993 11.2226 101.049 11.6116C100.106 12.0014 99.2559 12.5876 98.557 13.3313C98.6161 12.4706 98.9079 11.6418 99.4018 10.9349C99.8974 10.2272 100.575 9.66827 101.363 9.31813C104.17 8.1255 107.424 8.9531 109.782 6.9461V-0.000488281C107.969 0.641092 106.083 1.05572 104.17 1.2343C101.336 1.53194 98.6038 2.44181 96.1579 3.90108C92.7481 6.04781 90.3212 9.51449 90.3212 16.7137C90.3212 26.0319 95.709 28.6569 101.265 28.6569C106.821 28.6569 111.62 25.8496 111.62 19.7736C111.62 13.9067 108.126 11.0862 104.001 11.0862L104.029 11.0721ZM100.984 22.2291C98.9641 22.2291 98.4872 20.6429 98.4872 19.4222C98.4872 18.2014 98.9641 16.6157 100.984 16.6157C103.005 16.6157 103.44 18.1597 103.44 19.4222C103.44 20.6855 102.963 22.2291 100.984 22.2291ZM40.8626 18.5102C40.8626 13.8228 38.758 9.38799 33.9315 8.49011L33.5385 8.41983C33.2579 8.41983 32.9632 8.34956 32.6685 8.3355H31.5319C30.1379 8.39999 28.7884 8.84686 27.6312 9.62693C26.979 10.0701 26.3971 10.6096 25.9053 11.2267L25.12 8.96716H18.5254V35.6312H26.9439V26.888C27.5923 27.4581 28.3454 27.8962 29.1608 28.1794C30.1155 28.5362 31.1306 28.7032 32.149 28.6709C38.2385 28.6709 40.8902 23.745 40.8902 18.4962L40.8626 18.5102ZM29.329 21.9629C28.8298 21.9695 28.3379 21.843 27.9036 21.5962C27.4696 21.3494 27.1092 20.9918 26.8596 20.559V16.349C27.1175 15.9241 27.4803 15.5719 27.9118 15.3263C28.3441 15.0812 28.8322 14.9497 29.329 14.9452C31.3497 14.9452 32.2337 16.7 32.2337 18.3978C32.2469 18.6082 32.2469 18.8195 32.2337 19.0291C32.2126 19.7674 31.9101 20.4685 31.3885 20.9906C30.8661 21.5123 30.1647 21.8149 29.4274 21.8364L29.329 21.9629Z" fill="#5B5B5B"/>
</g>
<defs>
<clipPath id="clip0_1721_474">
<rect width="112.326" height="70" fill="white"/>
</clipPath>
</defs>
</svg>
