<svg width="138" height="70" viewBox="0 0 138 70" fill="none" xmlns="http://www.w3.org/2000/svg">
<g clip-path="url(#clip0_1746_347)">
<path fill-rule="evenodd" clip-rule="evenodd" d="M23.3808 17.1982L28.6462 16.6076L31.1348 34.185L23.0855 34.1992L23.3808 17.1982ZM0.0195312 69.9917L23.3844 69.9893L23.0855 50.9025H33.425L36.2869 70.0011L61.2627 69.9917L51.9154 43.6717C56.4603 40.6067 59.2017 34.3314 60.1525 27.9133C62.425 12.5871 52.4847 -0.0012207 36.607 -0.0012207H26.2663L26.975 5.58073L23.0855 5.56656V-0.0012207H0.0195312V69.9917Z" fill="#5B5B5B"/>
<path d="M101.725 12.0614H97.5419V8.53345H105.901V9.09212C105.901 9.67087 105.86 10.8638 105.527 12.2091C105.19 13.565 104.549 15.0768 103.348 16.2721C102.444 17.1816 101.434 17.7615 100.38 18.1135C99.3313 18.4631 98.2446 18.5883 97.1757 18.5883C96.1068 18.5883 95.0131 18.4761 93.9489 18.1277C92.8765 17.7769 91.8347 17.1828 90.8792 16.2225C90.5804 15.9213 89.9319 15.2174 89.3626 14.1036C88.7957 12.9933 88.302 11.4673 88.302 9.5185C88.302 7.8425 88.68 6.48422 89.1855 5.41649C89.691 4.34876 90.3323 3.56804 90.852 3.04481C91.5737 2.30307 92.5706 1.56251 93.884 1.04991C94.9363 0.638877 96.1954 0.375488 97.6742 0.375488C98.3179 0.375488 98.9876 0.427457 99.662 0.569191C100.336 0.708563 101.017 0.940061 101.685 1.2944C102.284 1.60267 102.916 2.04559 103.509 2.62906C104.032 3.14166 104.528 3.76293 104.952 4.49522L105.136 4.81412L101.669 6.69564L101.503 6.36611C101.239 5.84642 100.91 5.45074 100.588 5.15664C100.268 4.86373 99.9478 4.6653 99.7069 4.53774C99.062 4.21529 98.2482 4.05348 97.5253 4.05348C96.8745 4.05348 96.1789 4.17514 95.5304 4.42553C94.9375 4.65231 94.3824 4.98656 93.9288 5.43066C93.4694 5.87949 93.0654 6.50548 92.782 7.25194C92.5209 7.94408 92.3639 8.73897 92.3639 9.5941C92.3639 10.6536 92.5883 11.4969 92.8918 12.15C93.1942 12.7973 93.5792 13.2662 93.9029 13.5815C94.2489 13.917 94.6977 14.2512 95.2623 14.4993C95.8281 14.7473 96.5178 14.9103 97.3505 14.9103C97.8974 14.9103 98.4844 14.8312 99.0383 14.6611C99.5309 14.5099 100.006 14.2855 100.406 13.9819C100.723 13.7351 101.043 13.3937 101.307 12.9615C101.47 12.6957 101.613 12.3957 101.725 12.0614ZM107.545 0.813682H111.613V7.29092H118.943V0.813682H123.368V18.2741H118.943V10.8189H111.613V18.2741H107.187V0.813682H107.545ZM137.979 1.17156V4.34167H133.697V18.2741H129.273V4.34167H124.992V0.813682H137.979V1.17156ZM78.1503 65.8672C78.8365 65.5766 79.4507 65.1467 79.9598 64.6057L80.5775 63.9467V68.8518L80.372 68.9487C79.8027 69.2204 79.1365 69.4719 78.3629 69.655C77.5893 69.8369 76.7023 69.9538 75.6841 69.9538C74.0294 69.9538 72.6947 69.6952 71.575 69.2688C70.4518 68.8388 69.5435 68.2377 68.7451 67.5562C67.6443 66.5994 66.8777 65.5813 66.3864 64.4864C65.8939 63.388 65.6777 62.214 65.6777 60.949C65.6777 59.3864 66.0368 58.0411 66.599 56.9131C67.16 55.7911 67.9289 54.8804 68.7475 54.193C69.7042 53.378 70.7778 52.8076 71.9495 52.4426C73.114 52.08 74.3731 51.9194 75.7113 51.9194C76.3716 51.9194 77.1038 51.9713 77.8905 52.1296C78.6747 52.2879 79.5098 52.5524 80.3767 52.9765L80.5775 53.0745V57.9584L79.9621 57.3194C79.1755 56.5021 78.2885 56.0627 77.522 55.83C76.7578 55.5962 76.1058 55.5667 75.794 55.5667C74.1144 55.5667 72.7195 56.1667 71.7333 57.108C70.6774 58.1131 70.0774 59.5151 70.0774 60.9986C70.0774 62.6049 70.714 63.8664 71.6849 64.7498C72.8058 65.7727 74.3755 66.3054 75.931 66.3054C76.7271 66.3054 77.4771 66.1506 78.1503 65.8672ZM99.845 69.5806H95.769L94.1485 66.1022H87.2095L85.5878 69.5806H80.9165L89.1465 52.2926H92.404L100.404 69.5806H99.845ZM90.7198 58.0364L88.6552 62.7526H92.7855L90.7198 58.0364ZM101.632 69.2227V52.2926H107.294C108.594 52.2926 109.587 52.4485 110.365 52.6871C111.155 52.9304 111.728 53.2647 112.183 53.6095C112.869 54.1316 113.337 54.7328 113.642 55.3588C114.007 56.1123 114.14 56.8966 114.14 57.6194C114.14 58.4994 113.938 59.3297 113.539 60.0561C113.153 60.7588 112.579 61.3647 111.823 61.8242C111.553 61.9955 111.227 62.1596 110.848 62.2955L110.279 62.4679L116.104 69.5806H110.714L105.921 63.0561V69.5806H101.632V69.2227ZM106.635 55.6422H105.921V59.9202H106.58C106.903 59.9202 107.731 59.9025 108.462 59.6049C109.137 59.3309 109.74 58.797 109.74 57.7683C109.74 56.7277 109.145 56.1997 108.481 55.9352C107.763 55.6482 106.946 55.6422 106.635 55.6422ZM66.4726 43.7461V26.6848H72.253C73.5794 26.6848 74.5928 26.8431 75.3877 27.0841C76.1991 27.3297 76.7826 27.6628 77.2444 28.0089C77.9436 28.5345 78.422 29.1427 78.7338 29.7735C79.1058 30.5306 79.2428 31.3207 79.2428 32.0518C79.2428 32.94 79.0373 33.7763 78.6287 34.5074C78.2342 35.2149 77.6495 35.8267 76.8759 36.2897C76.6007 36.4621 76.2688 36.6263 75.8838 36.7621C75.7019 36.8259 75.507 36.8861 75.2956 36.9393L81.2472 44.1039H75.7562L70.8416 37.5086V44.1039H66.4726V43.7461ZM71.5798 30.0557H70.8416V34.3727H71.5219C71.8538 34.3727 72.7042 34.355 73.4518 34.055C74.144 33.7774 74.7617 33.24 74.7617 32.2018C74.7617 31.1542 74.1511 30.6215 73.4707 30.3522C72.7337 30.0616 71.8975 30.0557 71.5798 30.0557ZM82.9598 26.6848H93.7151V30.2057H86.9709V33.2211H93.4328V36.742H86.9709V40.5842H93.7151V44.1039H82.6019V26.6848H82.9598ZM100.906 33.4266V44.1039H96.5379V26.6848H99.5687L110.474 37.3385V26.6848H114.843V44.1039H111.811L100.906 33.4266ZM129.229 27.0427V30.2057H125.015V44.1039H120.646V30.2057H116.43V26.6848H129.229V27.0427ZM66.4726 17.9162V0.813682H72.2837C73.6196 0.813682 74.6365 0.971952 75.4349 1.21408C76.2475 1.45739 76.8369 1.79401 77.3023 2.14126C78.005 2.66803 78.4858 3.27749 78.7999 3.91057C79.1755 4.66884 79.3125 5.46019 79.3125 6.19248C79.3125 7.08186 79.1058 7.91927 78.696 8.65393C78.2991 9.36378 77.7098 9.9756 76.9326 10.4398C76.655 10.6122 76.322 10.7776 75.9334 10.9146C75.7527 10.9784 75.5554 11.0374 75.3428 11.0918L81.3263 18.2741H75.8082L70.8628 11.661V18.2741H66.4726V17.9162ZM71.6069 4.19049H70.8628V8.52046H71.5491C71.8833 8.52046 72.7384 8.50156 73.4908 8.20274C74.1865 7.924 74.8089 7.38423 74.8089 6.34366C74.8089 5.29129 74.1948 4.75743 73.5109 4.48931C72.7692 4.19758 71.9258 4.19049 71.6069 4.19049ZM82.6917 17.9162V0.813682H87.0819V18.2741H82.6917V17.9162Z" fill="#5B5B5B"/>
</g>
<defs>
<clipPath id="clip0_1746_347">
<rect width="137.999" height="70" fill="white"/>
</clipPath>
</defs>
</svg>
