<svg width="32" height="32" viewBox="0 0 32 32" fill="none" xmlns="http://www.w3.org/2000/svg">
<path d="M6.36213 0.0162177C6.92104 0.0324341 7.54067 0.0651535 8.13021 1.48205C8.52114 2.4253 9.17969 4.16177 9.71615 5.5763C10.1336 6.67701 10.4771 7.58279 10.5631 7.76818C10.7595 8.19154 10.8804 8.68006 10.6235 9.24995C10.5932 9.31718 10.5646 9.38146 10.5371 9.44335C10.331 9.90641 10.1844 10.2359 9.83783 10.6668C9.69533 10.8439 9.5469 11.0381 9.39901 11.2316C9.13892 11.5719 8.88052 11.91 8.65902 12.1489C8.26617 12.572 7.85801 13.0283 8.31132 13.8751C8.76489 14.7218 10.3516 17.5066 12.6939 19.754C15.2121 22.1814 17.4018 23.2044 18.5086 23.7215C18.7236 23.8219 18.8976 23.9032 19.0254 23.972C19.8114 24.3954 20.2797 24.3302 20.733 23.7603C21.1866 23.1902 22.6975 21.2848 23.2266 20.438C23.7404 19.5913 24.2692 19.7216 24.9947 20.0147C25.7199 20.3077 29.5885 22.3597 30.3742 22.783C30.5295 22.8667 30.6748 22.9422 30.8094 23.0121C31.3561 23.296 31.7277 23.4889 31.8854 23.7766C32.0818 24.1348 32.0818 25.8285 31.432 27.8153C30.7673 29.8021 27.5635 31.7075 26.1128 31.854C25.9754 31.868 25.8387 31.8859 25.698 31.9044C24.3686 32.0785 22.6809 32.2995 16.668 29.7369C9.25898 26.5823 4.36818 18.7553 3.37937 17.1729C3.30131 17.048 3.24756 16.962 3.21882 16.9203L3.20209 16.896C2.75221 16.2442 0 12.2569 0 8.14289C0 4.2068 1.79079 2.15757 2.60761 1.22288C2.65937 1.16364 2.70722 1.10888 2.75046 1.0584C3.4757 0.21168 4.32212 0 4.85093 0C5.38001 0 5.90882 -3.14201e-07 6.36213 0.0162177Z" fill="#010151"/>
</svg>
