<svg width="140" height="70" viewBox="0 0 140 70" fill="none" xmlns="http://www.w3.org/2000/svg">
<g clip-path="url(#clip0_1721_509)">
<path fill-rule="evenodd" clip-rule="evenodd" d="M17.6443 28.1679L17.6471 28.1708L17.6496 28.1679L21.0977 31.248C21.9695 25.9211 26.2551 21.7157 31.6201 20.9637L34.6548 17.5657L31.6168 14.1387C22.5413 14.9551 15.2503 22.1361 14.2656 31.1629L17.6443 28.1679Z" fill="#7F0000"/>
<path fill-rule="evenodd" clip-rule="evenodd" d="M10.422 31.4543C11.2984 20.1936 20.3471 11.1668 31.6165 10.3231V-0.000488281H0.162109V31.4543H10.422Z" fill="#7F0000"/>
<path fill-rule="evenodd" clip-rule="evenodd" d="M38.3512 17.483L38.3488 17.4859L38.3512 17.4883L35.2715 20.9364C40.5984 21.8083 44.8038 26.0934 45.5562 31.4584L48.9538 34.4935L52.3808 31.4555C51.5644 22.3796 44.3834 15.0886 35.3562 14.1035L38.3512 17.483Z" fill="#7F0000"/>
<path fill-rule="evenodd" clip-rule="evenodd" d="M35.0645 10.259C46.3248 11.1362 55.3523 20.1845 56.1957 31.4543H66.5196V-0.000488281H35.0645V10.259Z" fill="#7F0000"/>
<path fill-rule="evenodd" clip-rule="evenodd" d="M49.0359 38.1893L49.033 38.1864L49.0306 38.1893L45.5825 35.1091C44.7106 40.4361 40.4255 44.6415 35.0601 45.3934L32.0254 48.7911L35.0634 52.2185C44.1393 51.402 51.4299 44.2211 52.415 35.1935L49.0359 38.1893Z" fill="#7F0000"/>
<path fill-rule="evenodd" clip-rule="evenodd" d="M56.2597 34.9028C55.3825 46.1635 46.3339 55.1903 35.0645 56.034V66.3576H66.5196V34.9028H56.2597Z" fill="#7F0000"/>
<path fill-rule="evenodd" clip-rule="evenodd" d="M28.3304 48.8741L28.3329 48.8716L28.3304 48.8687L31.4101 45.4206C26.0832 44.5488 21.8782 40.2636 21.1262 34.8986L17.7286 31.8635L14.3008 34.9019C15.1172 43.9775 22.2982 51.2684 31.3258 52.2527L28.3304 48.8741Z" fill="#7F0000"/>
<path fill-rule="evenodd" clip-rule="evenodd" d="M31.6165 56.0977C20.3562 55.2209 11.329 46.1726 10.4853 34.9028H0.162109V66.3576H31.6165V56.0977Z" fill="#7F0000"/>
<path d="M84.7173 28.6543H82.6934V34.0073H78.5508V20.5391H82.6934V25.1922H84.85C85.203 23.6412 85.9343 22.4179 87.0443 21.5225C88.1538 20.6271 89.5159 20.1794 91.1302 20.1794C93.0215 20.1794 94.5477 20.8322 95.7081 22.1373C96.868 23.4423 97.448 25.1546 97.448 27.2732C97.448 29.379 96.8643 31.0818 95.6982 32.3806C94.532 33.6795 92.9962 34.3289 91.0926 34.3289C89.3898 34.3289 87.9641 33.8184 86.8173 32.7965C85.6693 31.775 84.9691 30.3943 84.7173 28.6543ZM93.2488 27.0839C93.2488 25.9619 93.0566 25.0818 92.6722 24.4452C92.2873 23.8082 91.7548 23.4894 91.0736 23.4894C90.3799 23.4894 89.8338 23.821 89.4366 24.4828C89.0397 25.1451 88.8413 26.0504 88.8413 27.1971C88.8413 28.3955 89.0397 29.3253 89.4366 29.9875C89.8338 30.6498 90.3857 30.9805 91.0926 30.9805C91.7858 30.9805 92.3183 30.6498 92.6903 29.9875C93.062 29.3253 93.2488 28.3579 93.2488 27.0839Z" fill="#7F0000"/>
<path d="M104.939 31.1127L104.371 30.5079L102.48 34.0073H98.0156L102.064 28.2376L98.4691 24.2463H102.802L104.901 27.4055H104.939V24.2463H108.514V27.4055H108.552L110.633 24.2463H114.984L111.39 28.2376L115.419 34.0073H110.955L109.063 30.5079L108.514 31.1127V34.0073H104.939V31.1127Z" fill="#7F0000"/>
<path d="M90.164 36.7192V50.1875H87.2137V39.2355H81.7094V50.1875H78.7578V36.7192H90.164Z" fill="#7F0000"/>
<path d="M95.0271 40.4268V41.6377C95.7327 40.6538 96.7422 40.1619 98.0535 40.1619C99.3652 40.1619 100.418 40.6348 101.213 41.5806C102.007 42.5264 102.404 43.7881 102.404 45.3644C102.404 46.8898 102.017 48.1163 101.242 49.0431C100.465 49.9699 99.4404 50.4338 98.1676 50.4338C96.8555 50.4338 95.8526 49.9484 95.1594 48.9774V53.6491H92.4922V40.4268H95.0271ZM97.3913 42.3185C96.66 42.3185 96.0891 42.5835 95.6798 43.113C95.2698 43.643 95.0647 44.3801 95.0647 45.3259C95.0647 46.2718 95.2731 47.0097 95.6893 47.5396C96.1052 48.0692 96.6786 48.3337 97.4107 48.3337C98.1292 48.3337 98.6934 48.0692 99.1035 47.5396C99.5132 47.0097 99.7182 46.285 99.7182 45.3644C99.7182 44.4185 99.5103 43.6744 99.0944 43.1321C98.6781 42.5901 98.1106 42.3185 97.3913 42.3185Z" fill="#7F0000"/>
<path d="M113.848 45.3074C113.848 46.8712 113.391 48.1254 112.477 49.0713C111.562 50.0171 110.342 50.4904 108.816 50.4904C107.29 50.4904 106.067 50.0171 105.146 49.0713C104.226 48.1254 103.766 46.8712 103.766 45.3074C103.766 43.7563 104.232 42.5079 105.166 41.5621C106.099 40.6162 107.328 40.1433 108.854 40.1433C110.355 40.1433 111.562 40.6162 112.477 41.5621C113.391 42.5079 113.848 43.7563 113.848 45.3074ZM111.162 45.2884C111.162 44.3173 110.951 43.5575 110.528 43.0089C110.106 42.4608 109.522 42.1859 108.779 42.1859C108.06 42.1859 107.492 42.4637 107.076 43.0184C106.66 43.5736 106.452 44.3363 106.452 45.3074C106.452 46.3036 106.66 47.0792 107.076 47.6339C107.492 48.1891 108.072 48.4661 108.816 48.4661C109.561 48.4661 110.137 48.1858 110.547 47.6244C110.957 47.0634 111.162 46.285 111.162 45.2884Z" fill="#7F0000"/>
<path d="M127.185 50.1875H124.65V42.773H124.593L122.683 50.1875H120.148L118.238 42.773H118.181V50.1875H115.646V40.427H119.543L121.378 47.5203H121.453L123.288 40.427H127.185V50.1875Z" fill="#7F0000"/>
<path d="M89.409 52.8992V66.3674H88.1225V53.9967H80.0829V66.3674H78.7969V52.8992H89.409Z" fill="#7F0000"/>
<path d="M93.0395 56.6451V58.5177C93.7459 57.08 94.9055 56.3611 96.5206 56.3611C97.8443 56.3611 98.9067 56.834 99.7078 57.7798C100.508 58.7257 100.909 59.9803 100.909 61.5442C100.909 63.0832 100.511 64.3221 99.7169 65.2613C98.9228 66.201 97.8691 66.671 96.5578 66.671C94.9183 66.671 93.7703 65.9707 93.1155 64.5706V70H91.9609V56.6451H93.0395ZM98.7992 58.4892C98.2006 57.7265 97.39 57.3449 96.3689 57.3449C95.3474 57.3449 94.5434 57.717 93.9572 58.4607C93.3706 59.2052 93.0771 60.2267 93.0771 61.5255C93.0771 62.7992 93.3768 63.8079 93.9758 64.5516C94.5744 65.2961 95.385 65.6681 96.4065 65.6681C97.4028 65.6681 98.2006 65.2928 98.7992 64.5425C99.3986 63.7926 99.6979 62.7926 99.6979 61.5442C99.6979 60.2709 99.3986 59.2523 98.7992 58.4892Z" fill="#7F0000"/>
<path d="M106.906 56.3611C108.306 56.3611 109.419 56.8278 110.245 57.7608C111.07 58.6947 111.483 59.9551 111.483 61.5442C111.483 63.1208 111.074 64.3664 110.254 65.28C109.434 66.1948 108.318 66.6516 106.906 66.6516C105.493 66.6516 104.368 66.1882 103.529 65.2613C102.691 64.3345 102.271 63.0832 102.271 61.5061C102.271 59.9431 102.691 58.6947 103.529 57.7608C104.368 56.8278 105.493 56.3611 106.906 56.3611ZM109.365 58.4892C108.747 57.7389 107.921 57.364 106.887 57.364C105.854 57.364 105.027 57.7389 104.409 58.4892C103.791 59.2399 103.482 60.2453 103.482 61.5061C103.482 62.7926 103.787 63.8079 104.4 64.5516C105.011 65.2961 105.854 65.6681 106.925 65.6681C107.959 65.6681 108.779 65.2961 109.384 64.5516C109.989 63.8079 110.292 62.7992 110.292 61.5255C110.292 60.2519 109.983 59.2399 109.365 58.4892Z" fill="#7F0000"/>
<path d="M121.378 63.1711C121.163 64.2678 120.697 65.1289 119.978 65.7527C119.26 66.3774 118.338 66.6895 117.217 66.6895C115.867 66.6895 114.785 66.229 113.972 65.3083C113.159 64.3881 112.752 63.1587 112.752 61.6201C112.752 60.0814 113.165 58.8231 113.991 57.8458C114.816 56.8686 115.885 56.3804 117.197 56.3804C118.572 56.3804 119.627 56.8657 120.366 57.8367C121.103 58.8078 121.472 60.012 121.472 61.4498V61.79H113.962C113.962 62.9123 114.236 63.8491 114.785 64.599C115.334 65.3497 116.157 65.7242 117.254 65.7242C118.855 65.7242 119.845 64.8735 120.224 63.1711H121.378ZM120.281 60.8251C120.217 59.7412 119.909 58.8925 119.354 58.2811C118.799 57.6693 118.067 57.3638 117.16 57.3638C116.176 57.3638 115.429 57.685 114.918 58.3283C114.407 58.9715 114.088 59.8036 113.962 60.8251H120.281Z" fill="#7F0000"/>
<path d="M127.146 60.4279L131.535 66.3675H130.04L126.276 61.2411L124.29 63.0765V66.3675H123.098V56.645H124.29V61.6202L129.699 56.645H131.289L127.146 60.4279Z" fill="#7F0000"/>
<path d="M139.839 57.6475H136.226V66.3675H135.034V57.6475H131.422V56.645H139.839V57.6475Z" fill="#7F0000"/>
</g>
<defs>
<clipPath id="clip0_1721_509">
<rect width="140.001" height="70" fill="white"/>
</clipPath>
</defs>
</svg>
