<svg width="32" height="32" viewBox="0 0 32 32" fill="none" xmlns="http://www.w3.org/2000/svg">
<path fill-rule="evenodd" clip-rule="evenodd" d="M2 0C0.895431 0 0 0.895431 0 2V30C0 31.1046 0.895431 32 2 32H30C31.1046 32 32 31.1046 32 30V2C32 0.895431 31.1046 0 30 0H2ZM7.79441 10.1351H3.14278C3.06593 10.1344 2.99009 10.1524 2.92184 10.1875C2.85359 10.2225 2.79499 10.2735 2.75114 10.3361C2.70728 10.3987 2.67949 10.4709 2.67018 10.5466C2.66087 10.6222 2.67032 10.699 2.6977 10.7702C5.62329 19.6242 10.8177 22.7944 12.7229 23.6879C13.1492 23.8855 13.6146 23.9866 14.0852 23.9839H17.3962C17.6156 23.988 17.8291 23.9136 17.9976 23.7742C18.1661 23.6348 18.2783 23.4398 18.3135 23.225C18.3597 22.8984 18.3935 22.6138 18.4233 22.3631C18.5232 21.5233 18.5778 21.0634 18.8997 20.6738C18.9468 20.6317 19.0022 20.5997 19.0623 20.5798C19.1224 20.5599 19.1861 20.5524 19.2492 20.558C19.3124 20.5636 19.3737 20.582 19.4294 20.6121C19.485 20.6422 19.5338 20.6833 19.5727 20.733L22.9651 23.5318C23.0975 23.6776 23.259 23.7945 23.4393 23.8751C23.6196 23.9557 23.8149 23.9983 24.0127 24.0001H28.8271C28.9233 24.0014 29.0178 23.9751 29.0993 23.9245C29.1808 23.8738 29.2457 23.8009 29.2864 23.7145C29.3271 23.6281 29.3418 23.5319 29.3287 23.4374C29.3156 23.3429 29.2752 23.2542 29.2125 23.1819L25.3805 18.6554C25.1856 18.4308 25.0785 18.1443 25.0785 17.848C25.0785 17.5517 25.1856 17.2653 25.3805 17.0407C26.5149 15.7058 28.686 12.9393 29.0877 10.7863C29.1049 10.7068 29.1038 10.6245 29.0843 10.5455C29.0649 10.4666 29.0277 10.393 28.9754 10.3303C28.9232 10.2676 28.8573 10.2175 28.7828 10.1837C28.7082 10.1499 28.6269 10.1333 28.5449 10.1351H24.2841C24.0894 10.1374 23.9 10.1984 23.741 10.3099C23.5821 10.4214 23.461 10.5782 23.3939 10.7594C22.2595 13.7736 21.1142 16.6639 19.1711 17.073C19.1092 17.084 19.0457 17.0814 18.9849 17.0654C18.9242 17.0494 18.8677 17.0203 18.8195 16.9803C18.7714 16.9402 18.7327 16.8901 18.7062 16.8336C18.6797 16.7771 18.6661 16.7155 18.6663 16.6531L18.2755 10.7325C18.2745 10.5435 18.2188 10.3588 18.1148 10.2003C18.0109 10.0419 17.8632 9.9165 17.6893 9.83904C16.8612 9.48733 15.9668 9.31545 15.0662 9.33494C14.1656 9.35444 13.2796 9.56486 12.4677 9.95207C12.4193 9.97478 12.3767 10.008 12.3429 10.0492C12.3092 10.0904 12.2851 10.1386 12.2726 10.1903C12.2602 10.2419 12.2595 10.2957 12.2707 10.3476C12.2819 10.3995 12.3047 10.4483 12.3375 10.4903C14.0852 12.5302 13.1842 15.4044 12.6957 16.5885C12.6719 16.6379 12.6355 16.6801 12.5901 16.7111C12.5446 16.7421 12.4918 16.7607 12.4368 16.765C12.3819 16.7694 12.3267 16.7593 12.2769 16.7359C12.2271 16.7125 12.1843 16.6765 12.1529 16.6316C10.56 14.7431 9.23428 12.648 8.21235 10.4042C8.17544 10.3248 8.11659 10.2573 8.04262 10.2097C7.96866 10.1621 7.8826 10.1362 7.79441 10.1351Z" fill="#010151"/>
</svg>
