<svg width="33" height="32" viewBox="0 0 33 32" fill="none" xmlns="http://www.w3.org/2000/svg">
<path fill-rule="evenodd" clip-rule="evenodd" d="M2.99805 0C1.89348 0 0.998047 0.895432 0.998047 2V29.9996C0.998047 31.1042 1.89348 31.9996 2.99805 31.9996H30.9976C32.1022 31.9996 32.9976 31.1042 32.9976 29.9996V2C32.9976 0.895431 32.1022 0 30.9976 0H2.99805ZM8.79366 10.1351H4.14209C4.06524 10.1345 3.9894 10.1525 3.92115 10.1875C3.8529 10.2225 3.79431 10.2736 3.75045 10.3361C3.7066 10.3987 3.67881 10.471 3.6695 10.5466C3.66018 10.6223 3.66963 10.699 3.69702 10.7702C6.62256 19.6241 11.8169 22.7943 13.722 23.6878C14.1484 23.8853 14.6138 23.9864 15.0844 23.9838H18.3953C18.6147 23.9879 18.8282 23.9134 18.9967 23.774C19.1652 23.6346 19.2774 23.4397 19.3126 23.2249C19.3588 22.8982 19.3926 22.6137 19.4224 22.363C19.5223 21.5231 19.5769 21.0633 19.8988 20.6737C19.9459 20.6316 20.0013 20.5996 20.0614 20.5797C20.1215 20.5598 20.1852 20.5523 20.2483 20.5579C20.3115 20.5635 20.3728 20.5819 20.4285 20.612C20.4841 20.6421 20.5329 20.6832 20.5718 20.7329L23.9642 23.5317C24.0965 23.6774 24.258 23.7943 24.4383 23.8749C24.6187 23.9555 24.8139 23.9981 25.0117 23.9999H29.8261C29.9223 24.0012 30.0168 23.975 30.0982 23.9243C30.1797 23.8737 30.2447 23.8008 30.2854 23.7144C30.3261 23.628 30.3408 23.5317 30.3277 23.4373C30.3146 23.3428 30.2742 23.2541 30.2115 23.1818L26.3795 18.6553C26.1847 18.4307 26.0775 18.1442 26.0775 17.8479C26.0775 17.5517 26.1847 17.2652 26.3795 17.0406C27.5139 15.7058 29.685 12.9393 30.0867 10.7864C30.1039 10.7069 30.1027 10.6245 30.0833 10.5456C30.0639 10.4666 30.0266 10.393 29.9744 10.3303C29.9222 10.2676 29.8563 10.2175 29.7817 10.1837C29.7072 10.1499 29.6259 10.1333 29.5439 10.1351H25.2831C25.0884 10.1375 24.899 10.1984 24.7401 10.3099C24.5811 10.4214 24.4601 10.5782 24.393 10.7594C23.2586 13.7735 22.1133 16.6638 20.1702 17.0729C20.1083 17.0839 20.0448 17.0814 19.984 17.0653C19.9233 17.0493 19.8668 17.0203 19.8186 16.9802C19.7705 16.9402 19.7318 16.8901 19.7053 16.8336C19.6788 16.777 19.6652 16.7154 19.6654 16.6531L19.2746 10.7325C19.2736 10.5435 19.2179 10.3588 19.1139 10.2004C19.01 10.042 18.8623 9.91653 18.6884 9.83907C17.8603 9.48737 16.966 9.31549 16.0653 9.33499C15.1647 9.35448 14.2787 9.5649 13.4669 9.9521C13.4185 9.97482 13.3759 10.008 13.3421 10.0492C13.3084 10.0904 13.2843 10.1387 13.2718 10.1903C13.2593 10.2419 13.2587 10.2957 13.2699 10.3476C13.2811 10.3995 13.3039 10.4483 13.3367 10.4903C15.0844 12.5302 14.1834 15.4044 13.6949 16.5885C13.6711 16.6378 13.6347 16.6801 13.5892 16.711C13.5438 16.742 13.491 16.7606 13.436 16.765C13.3811 16.7693 13.3259 16.7593 13.2761 16.7359C13.2263 16.7125 13.1835 16.6765 13.1521 16.6315C11.5592 14.7431 10.2335 12.648 9.21159 10.4042C9.17468 10.3248 9.11584 10.2574 9.04187 10.2097C8.9679 10.1621 8.88184 10.1362 8.79366 10.1351Z" fill="#5B5B5B"/>
</svg>
