<svg width="33" height="32" viewBox="0 0 33 32" fill="none" xmlns="http://www.w3.org/2000/svg">
<rect x="0.667969" width="31.9996" height="31.9996" rx="2" fill="#5B5B5B"/>
<path d="M29.5575 7.88487C29.4971 7.32649 29.2483 6.80683 28.8535 6.41476C28.4588 6.02268 27.9427 5.78253 27.3935 5.73536C20.2449 5.19954 13.0673 5.19954 5.91865 5.73536C5.37161 5.78526 4.85838 6.02663 4.46613 6.41846C4.07389 6.81029 3.82682 7.32843 3.76688 7.88487C3.19229 12.8333 3.19229 17.8335 3.76688 22.7819C3.82637 23.3417 4.07573 23.8627 4.47191 24.2552C4.8681 24.6476 5.38626 24.8868 5.93699 24.9314C13.0856 25.4672 20.2632 25.4672 27.4118 24.9314C27.9615 24.8854 28.4782 24.6456 28.8731 24.2533C29.2681 23.861 29.5166 23.3407 29.5758 22.7819C30.1505 17.8331 30.1443 12.8322 29.5575 7.88487ZM20.8832 15.2493L14.4279 18.9875C14.3741 19.0192 14.3131 19.0359 14.251 19.0359C14.1889 19.036 14.1278 19.0194 14.0739 18.9879C14.0201 18.9563 13.9753 18.9109 13.9441 18.8562C13.9129 18.8014 13.8963 18.7393 13.8961 18.676V11.1683C13.8952 11.1045 13.911 11.0416 13.9418 10.9859C13.9726 10.9303 14.0172 10.884 14.0713 10.8517C14.1253 10.8195 14.1868 10.8023 14.2494 10.8021C14.3121 10.8019 14.3736 10.8186 14.4279 10.8506L20.8832 14.62C20.9379 14.6515 20.9834 14.6972 21.015 14.7525C21.0467 14.8077 21.0634 14.8706 21.0634 14.9346C21.0634 14.9986 21.0467 15.0615 21.015 15.1168C20.9834 15.1721 20.9379 15.2178 20.8832 15.2493Z" fill="#C7D4E0"/>
</svg>
