<svg width="32" height="32" viewBox="0 0 32 32" fill="none" xmlns="http://www.w3.org/2000/svg">
<path fill-rule="evenodd" clip-rule="evenodd" d="M2 0C0.894531 0 0 0.895508 0 2V30C0 30.561 0.230469 31.0684 0.603516 31.4316C0.964844 31.7832 1.45703 32 2 32H30C31.1055 32 32 31.1045 32 30V2C32 0.895508 31.1055 0 30 0H2ZM28.1836 6.41455C28.5781 6.80664 28.8281 7.32666 28.8887 7.88477C29.4746 12.832 29.4805 17.8335 28.9062 22.7822C28.8477 23.3408 28.5977 23.8613 28.2031 24.2534C27.8086 24.646 27.291 24.8857 26.7422 24.9316C19.5938 25.4673 12.416 25.4673 5.26758 24.9316C4.7168 24.8872 4.19727 24.6479 3.80273 24.2554C3.40625 23.8628 3.15625 23.3418 3.09766 22.7822C2.52148 17.8335 2.52148 12.8335 3.09766 7.88477C3.15625 7.32861 3.4043 6.81055 3.79688 6.41846C4.1875 6.02686 4.70117 5.78516 5.24805 5.73535C12.3984 5.19971 19.5742 5.19971 26.7246 5.73535C27.2734 5.78271 27.7891 6.02246 28.1836 6.41455ZM13.7578 18.9878L20.2129 15.2495C20.2676 15.2178 20.3145 15.1724 20.3457 15.1167C20.377 15.0615 20.3945 14.9985 20.3945 14.9346C20.3945 14.8706 20.377 14.8081 20.3457 14.7524C20.3301 14.7256 20.3105 14.7012 20.2891 14.6792C20.2656 14.6562 20.2402 14.6362 20.2129 14.6201L13.7578 10.8506C13.7031 10.8188 13.6426 10.8018 13.5801 10.8022C13.5176 10.8022 13.4551 10.8193 13.4023 10.8521C13.3672 10.8726 13.3359 10.8984 13.3105 10.9292L13.2715 10.9858C13.2422 11.0415 13.2246 11.1045 13.2266 11.1685V18.6763C13.2266 18.7393 13.2422 18.8018 13.2734 18.8564C13.3047 18.9111 13.3496 18.9565 13.4043 18.9883C13.459 19.0195 13.5195 19.0361 13.582 19.0361C13.6133 19.0361 13.6445 19.0317 13.6738 19.0234C13.7031 19.0151 13.7324 19.0034 13.7578 18.9878Z" fill="#5B5B5B"/>
</svg>
